<svg class="main-svg" xmlns="http://www.w3.org/2000/svg" xmlns:xlink="http://www.w3.org/1999/xlink" width="700" height="500" style="" viewBox="0 0 700 500"><rect x="0" y="0" width="700" height="500" style="fill: rgb(255, 255, 255); fill-opacity: 1;"/><defs id="defs-03165d"><g class="clips"><clipPath id="clip03165dxyplot" class="plotclip"><rect width="422" height="282"/></clipPath><clipPath class="axesclip" id="clip03165dx"><rect x="80" y="0" width="422" height="500"/></clipPath><clipPath class="axesclip" id="clip03165dy"><rect x="0" y="100" width="700" height="282"/></clipPath><clipPath class="axesclip" id="clip03165dxy"><rect x="80" y="100" width="422" height="282"/></clipPath></g><g class="gradients"/><g class="patterns"/></defs><g class="bglayer"/><g class="layer-below"><g class="imagelayer"/><g class="shapelayer"/></g><g class="cartesianlayer"><g class="subplot xy"><g class="layer-subplot"><g class="shapelayer"/><g class="imagelayer"/></g><g class="minor-gridlayer"><g class="x"/><g class="y"/></g><g class="gridlayer"><g class="x"/><g class="y"><path class="ygrid crisp" transform="translate(0,317.14)" d="M80,0h422" style="stroke: rgb(235, 240, 248); stroke-opacity: 1; stroke-width: 1px;"/><path class="ygrid crisp" transform="translate(0,232.54)" d="M80,0h422" style="stroke: rgb(235, 240, 248); stroke-opacity: 1; stroke-width: 1px;"/><path class="ygrid crisp" transform="translate(0,147.94)" d="M80,0h422" style="stroke: rgb(235, 240, 248); stroke-opacity: 1; stroke-width: 1px;"/></g></g><g class="zerolinelayer"/><g class="layer-between"><g class="shapelayer"/><g class="imagelayer"/></g><path class="xlines-below"/><path class="ylines-below"/><g class="overlines-below"/><g class="xaxislayer-below"/><g class="yaxislayer-below"/><g class="overaxes-below"/><g class="overplot"><g class="xy" transform="translate(80,100)" clip-path="url(#clip03165dxyplot)"><g class="boxlayer mlayer"><g class="trace boxes" style="opacity: 1;"><path class="box" d="M24.37,218.14H65.43M24.37,234.06H65.43V217.14H24.37ZM44.9,234.06V250.98M44.9,217.14V200.22M34.63,250.98H55.17M34.63,200.22H55.17" style="vector-effect: none; stroke-width: 2px; stroke: rgb(95, 70, 144); stroke-opacity: 1; fill: rgb(95, 70, 144); fill-opacity: 0.5;"/><g class="points"><path class="point" transform="translate(14.61,267.9)" d="M3,0A3,3 0 1,1 0,-3A3,3 0 0,1 3,0Z" style="opacity: 1; stroke-width: 0px; fill: rgb(95, 70, 144); fill-opacity: 1;"/><path class="point" transform="translate(13.42,250.98)" d="M3,0A3,3 0 1,1 0,-3A3,3 0 0,1 3,0Z" style="opacity: 1; stroke-width: 0px; fill: rgb(95, 70, 144); fill-opacity: 1;"/><path class="point" transform="translate(15,250.98)" d="M3,0A3,3 0 1,1 0,-3A3,3 0 0,1 3,0Z" style="opacity: 1; stroke-width: 0px; fill: rgb(95, 70, 144); fill-opacity: 1;"/><path class="point" transform="translate(13.06,250.98)" d="M3,0A3,3 0 1,1 0,-3A3,3 0 0,1 3,0Z" style="opacity: 1; stroke-width: 0px; fill: rgb(95, 70, 144); fill-opacity: 1;"/><path class="point" transform="translate(13.78,250.98)" d="M3,0A3,3 0 1,1 0,-3A3,3 0 0,1 3,0Z" style="opacity: 1; stroke-width: 0px; fill: rgb(95, 70, 144); fill-opacity: 1;"/><path class="point" transform="translate(14.83,234.06)" d="M3,0A3,3 0 1,1 0,-3A3,3 0 0,1 3,0Z" style="opacity: 1; stroke-width: 0px; fill: rgb(95, 70, 144); fill-opacity: 1;"/><path class="point" transform="translate(14.03,234.06)" d="M3,0A3,3 0 1,1 0,-3A3,3 0 0,1 3,0Z" style="opacity: 1; stroke-width: 0px; fill: rgb(95, 70, 144); fill-opacity: 1;"/><path class="point" transform="translate(14.5,234.06)" d="M3,0A3,3 0 1,1 0,-3A3,3 0 0,1 3,0Z" style="opacity: 1; stroke-width: 0px; fill: rgb(95, 70, 144); fill-opacity: 1;"/><path class="point" transform="translate(13.66,234.06)" d="M3,0A3,3 0 1,1 0,-3A3,3 0 0,1 3,0Z" style="opacity: 1; stroke-width: 0px; fill: rgb(95, 70, 144); fill-opacity: 1;"/><path class="point" transform="translate(13.09,234.06)" d="M3,0A3,3 0 1,1 0,-3A3,3 0 0,1 3,0Z" style="opacity: 1; stroke-width: 0px; fill: rgb(95, 70, 144); fill-opacity: 1;"/><path class="point" transform="translate(14.62,234.06)" d="M3,0A3,3 0 1,1 0,-3A3,3 0 0,1 3,0Z" style="opacity: 1; stroke-width: 0px; fill: rgb(95, 70, 144); fill-opacity: 1;"/><path class="point" transform="translate(13.46,234.06)" d="M3,0A3,3 0 1,1 0,-3A3,3 0 0,1 3,0Z" style="opacity: 1; stroke-width: 0px; fill: rgb(95, 70, 144); fill-opacity: 1;"/><path class="point" transform="translate(15.34,217.14)" d="M3,0A3,3 0 1,1 0,-3A3,3 0 0,1 3,0Z" style="opacity: 1; stroke-width: 0px; fill: rgb(95, 70, 144); fill-opacity: 1;"/><path class="point" transform="translate(12.21,217.14)" d="M3,0A3,3 0 1,1 0,-3A3,3 0 0,1 3,0Z" style="opacity: 1; stroke-width: 0px; fill: rgb(95, 70, 144); fill-opacity: 1;"/><path class="point" transform="translate(12.98,217.14)" d="M3,0A3,3 0 1,1 0,-3A3,3 0 0,1 3,0Z" style="opacity: 1; stroke-width: 0px; fill: rgb(95, 70, 144); fill-opacity: 1;"/><path class="point" transform="translate(15.83,217.14)" d="M3,0A3,3 0 1,1 0,-3A3,3 0 0,1 3,0Z" style="opacity: 1; stroke-width: 0px; fill: rgb(95, 70, 144); fill-opacity: 1;"/><path class="point" transform="translate(13.62,217.14)" d="M3,0A3,3 0 1,1 0,-3A3,3 0 0,1 3,0Z" style="opacity: 1; stroke-width: 0px; fill: rgb(95, 70, 144); fill-opacity: 1;"/><path class="point" transform="translate(8.82,217.14)" d="M3,0A3,3 0 1,1 0,-3A3,3 0 0,1 3,0Z" style="opacity: 1; stroke-width: 0px; fill: rgb(95, 70, 144); fill-opacity: 1;"/><path class="point" transform="translate(12.07,217.14)" d="M3,0A3,3 0 1,1 0,-3A3,3 0 0,1 3,0Z" style="opacity: 1; stroke-width: 0px; fill: rgb(95, 70, 144); fill-opacity: 1;"/><path class="point" transform="translate(13.97,217.14)" d="M3,0A3,3 0 1,1 0,-3A3,3 0 0,1 3,0Z" style="opacity: 1; stroke-width: 0px; fill: rgb(95, 70, 144); fill-opacity: 1;"/><path class="point" transform="translate(16.87,217.14)" d="M3,0A3,3 0 1,1 0,-3A3,3 0 0,1 3,0Z" style="opacity: 1; stroke-width: 0px; fill: rgb(95, 70, 144); fill-opacity: 1;"/><path class="point" transform="translate(14.79,217.14)" d="M3,0A3,3 0 1,1 0,-3A3,3 0 0,1 3,0Z" style="opacity: 1; stroke-width: 0px; fill: rgb(95, 70, 144); fill-opacity: 1;"/><path class="point" transform="translate(12.37,217.14)" d="M3,0A3,3 0 1,1 0,-3A3,3 0 0,1 3,0Z" style="opacity: 1; stroke-width: 0px; fill: rgb(95, 70, 144); fill-opacity: 1;"/><path class="point" transform="translate(8.95,217.14)" d="M3,0A3,3 0 1,1 0,-3A3,3 0 0,1 3,0Z" style="opacity: 1; stroke-width: 0px; fill: rgb(95, 70, 144); fill-opacity: 1;"/><path class="point" transform="translate(14.09,217.14)" d="M3,0A3,3 0 1,1 0,-3A3,3 0 0,1 3,0Z" style="opacity: 1; stroke-width: 0px; fill: rgb(95, 70, 144); fill-opacity: 1;"/><path class="point" transform="translate(12.3,217.14)" d="M3,0A3,3 0 1,1 0,-3A3,3 0 0,1 3,0Z" style="opacity: 1; stroke-width: 0px; fill: rgb(95, 70, 144); fill-opacity: 1;"/><path class="point" transform="translate(15.01,217.14)" d="M3,0A3,3 0 1,1 0,-3A3,3 0 0,1 3,0Z" style="opacity: 1; stroke-width: 0px; fill: rgb(95, 70, 144); fill-opacity: 1;"/><path class="point" transform="translate(13.93,217.14)" d="M3,0A3,3 0 1,1 0,-3A3,3 0 0,1 3,0Z" style="opacity: 1; stroke-width: 0px; fill: rgb(95, 70, 144); fill-opacity: 1;"/><path class="point" transform="translate(12.83,217.14)" d="M3,0A3,3 0 1,1 0,-3A3,3 0 0,1 3,0Z" style="opacity: 1; stroke-width: 0px; fill: rgb(95, 70, 144); fill-opacity: 1;"/><path class="point" transform="translate(12.29,217.14)" d="M3,0A3,3 0 1,1 0,-3A3,3 0 0,1 3,0Z" style="opacity: 1; stroke-width: 0px; fill: rgb(95, 70, 144); fill-opacity: 1;"/><path class="point" transform="translate(15.2,217.14)" d="M3,0A3,3 0 1,1 0,-3A3,3 0 0,1 3,0Z" style="opacity: 1; stroke-width: 0px; fill: rgb(95, 70, 144); fill-opacity: 1;"/><path class="point" transform="translate(12.44,200.22)" d="M3,0A3,3 0 1,1 0,-3A3,3 0 0,1 3,0Z" style="opacity: 1; stroke-width: 0px; fill: rgb(95, 70, 144); fill-opacity: 1;"/><path class="point" transform="translate(14.92,200.22)" d="M3,0A3,3 0 1,1 0,-3A3,3 0 0,1 3,0Z" style="opacity: 1; stroke-width: 0px; fill: rgb(95, 70, 144); fill-opacity: 1;"/><path class="point" transform="translate(14.35,200.22)" d="M3,0A3,3 0 1,1 0,-3A3,3 0 0,1 3,0Z" style="opacity: 1; stroke-width: 0px; fill: rgb(95, 70, 144); fill-opacity: 1;"/><path class="point" transform="translate(13.79,200.22)" d="M3,0A3,3 0 1,1 0,-3A3,3 0 0,1 3,0Z" style="opacity: 1; stroke-width: 0px; fill: rgb(95, 70, 144); fill-opacity: 1;"/><path class="point" transform="translate(13.51,200.22)" d="M3,0A3,3 0 1,1 0,-3A3,3 0 0,1 3,0Z" style="opacity: 1; stroke-width: 0px; fill: rgb(95, 70, 144); fill-opacity: 1;"/><path class="point" transform="translate(14.62,200.22)" d="M3,0A3,3 0 1,1 0,-3A3,3 0 0,1 3,0Z" style="opacity: 1; stroke-width: 0px; fill: rgb(95, 70, 144); fill-opacity: 1;"/><path class="point" transform="translate(13.99,183.3)" d="M3,0A3,3 0 1,1 0,-3A3,3 0 0,1 3,0Z" style="opacity: 1; stroke-width: 0px; fill: rgb(95, 70, 144); fill-opacity: 1;"/><path class="point" transform="translate(14.77,166.38)" d="M3,0A3,3 0 1,1 0,-3A3,3 0 0,1 3,0Z" style="opacity: 1; stroke-width: 0px; fill: rgb(95, 70, 144); fill-opacity: 1;"/></g></g><g class="trace boxes" style="opacity: 1;"><path class="box" d="M108.17,234.06H149.23M108.17,267.9H149.23V183.3H108.17ZM128.7,267.9V267.9M128.7,183.3V149.46M118.43,267.9H138.97M118.43,149.46H138.97" style="vector-effect: none; stroke-width: 2px; stroke: rgb(29, 105, 150); stroke-opacity: 1; fill: rgb(29, 105, 150); fill-opacity: 0.5;"/><g class="points"><path class="point" transform="translate(100.82,267.9)" d="M3,0A3,3 0 1,1 0,-3A3,3 0 0,1 3,0Z" style="opacity: 1; stroke-width: 0px; fill: rgb(29, 105, 150); fill-opacity: 1;"/><path class="point" transform="translate(93.98,267.9)" d="M3,0A3,3 0 1,1 0,-3A3,3 0 0,1 3,0Z" style="opacity: 1; stroke-width: 0px; fill: rgb(29, 105, 150); fill-opacity: 1;"/><path class="point" transform="translate(102.26,267.9)" d="M3,0A3,3 0 1,1 0,-3A3,3 0 0,1 3,0Z" style="opacity: 1; stroke-width: 0px; fill: rgb(29, 105, 150); fill-opacity: 1;"/><path class="point" transform="translate(93.15,234.06)" d="M3,0A3,3 0 1,1 0,-3A3,3 0 0,1 3,0Z" style="opacity: 1; stroke-width: 0px; fill: rgb(29, 105, 150); fill-opacity: 1;"/><path class="point" transform="translate(96.52,234.06)" d="M3,0A3,3 0 1,1 0,-3A3,3 0 0,1 3,0Z" style="opacity: 1; stroke-width: 0px; fill: rgb(29, 105, 150); fill-opacity: 1;"/><path class="point" transform="translate(100.86,183.3)" d="M3,0A3,3 0 1,1 0,-3A3,3 0 0,1 3,0Z" style="opacity: 1; stroke-width: 0px; fill: rgb(29, 105, 150); fill-opacity: 1;"/><path class="point" transform="translate(97.71,183.3)" d="M3,0A3,3 0 1,1 0,-3A3,3 0 0,1 3,0Z" style="opacity: 1; stroke-width: 0px; fill: rgb(29, 105, 150); fill-opacity: 1;"/><path class="point" transform="translate(99.28,149.46)" d="M3,0A3,3 0 1,1 0,-3A3,3 0 0,1 3,0Z" style="opacity: 1; stroke-width: 0px; fill: rgb(29, 105, 150); fill-opacity: 1;"/></g></g><g class="trace boxes" style="opacity: 1;"><path class="box" d="M191.97,183.3H233.03M191.97,183.3H233.03V183.3H191.97ZM212.5,183.3V183.3M212.5,183.3V183.3M202.23,183.3H222.77M202.23,183.3H222.77" style="vector-effect: none; stroke-width: 2px; stroke: rgb(56, 166, 165); stroke-opacity: 1; fill: rgb(56, 166, 165); fill-opacity: 0.5;"/><g class="points"><path class="point" transform="translate(184.9,183.3)" d="M3,0A3,3 0 1,1 0,-3A3,3 0 0,1 3,0Z" style="opacity: 1; stroke-width: 0px; fill: rgb(56, 166, 165); fill-opacity: 1;"/></g></g><g class="trace boxes" style="opacity: 1;"><path class="box" d="M275.77,225.6H316.83M275.77,234.06H316.83V149.46H275.77ZM296.3,234.06V250.98M296.3,149.46V132.54M286.03,250.98H306.57M286.03,132.54H306.57" style="vector-effect: none; stroke-width: 2px; stroke: rgb(15, 133, 84); stroke-opacity: 1; fill: rgb(15, 133, 84); fill-opacity: 0.5;"/><g class="points"><path class="point" transform="translate(268.7,250.98)" d="M3,0A3,3 0 1,1 0,-3A3,3 0 0,1 3,0Z" style="opacity: 1; stroke-width: 0px; fill: rgb(15, 133, 84); fill-opacity: 1;"/><path class="point" transform="translate(263.02,250.98)" d="M3,0A3,3 0 1,1 0,-3A3,3 0 0,1 3,0Z" style="opacity: 1; stroke-width: 0px; fill: rgb(15, 133, 84); fill-opacity: 1;"/><path class="point" transform="translate(268.77,234.06)" d="M3,0A3,3 0 1,1 0,-3A3,3 0 0,1 3,0Z" style="opacity: 1; stroke-width: 0px; fill: rgb(15, 133, 84); fill-opacity: 1;"/><path class="point" transform="translate(261.98,234.06)" d="M3,0A3,3 0 1,1 0,-3A3,3 0 0,1 3,0Z" style="opacity: 1; stroke-width: 0px; fill: rgb(15, 133, 84); fill-opacity: 1;"/><path class="point" transform="translate(264.73,234.06)" d="M3,0A3,3 0 1,1 0,-3A3,3 0 0,1 3,0Z" style="opacity: 1; stroke-width: 0px; fill: rgb(15, 133, 84); fill-opacity: 1;"/><path class="point" transform="translate(267.14,217.14)" d="M3,0A3,3 0 1,1 0,-3A3,3 0 0,1 3,0Z" style="opacity: 1; stroke-width: 0px; fill: rgb(15, 133, 84); fill-opacity: 1;"/><path class="point" transform="translate(265.39,149.46)" d="M3,0A3,3 0 1,1 0,-3A3,3 0 0,1 3,0Z" style="opacity: 1; stroke-width: 0px; fill: rgb(15, 133, 84); fill-opacity: 1;"/><path class="point" transform="translate(266.33,149.46)" d="M3,0A3,3 0 1,1 0,-3A3,3 0 0,1 3,0Z" style="opacity: 1; stroke-width: 0px; fill: rgb(15, 133, 84); fill-opacity: 1;"/><path class="point" transform="translate(264.66,132.54)" d="M3,0A3,3 0 1,1 0,-3A3,3 0 0,1 3,0Z" style="opacity: 1; stroke-width: 0px; fill: rgb(15, 133, 84); fill-opacity: 1;"/><path class="point" transform="translate(263.73,14.1)" d="M3,0A3,3 0 1,1 0,-3A3,3 0 0,1 3,0Z" style="opacity: 1; stroke-width: 0px; fill: rgb(15, 133, 84); fill-opacity: 1;"/></g></g><g class="trace boxes" style="opacity: 1;"><path class="box" d="M359.57,250.98H400.63M359.57,250.98H400.63V250.98H359.57ZM380.1,250.98V250.98M380.1,250.98V250.98M369.83,250.98H390.37M369.83,250.98H390.37" style="vector-effect: none; stroke-width: 2px; stroke: rgb(115, 175, 72); stroke-opacity: 1; fill: rgb(115, 175, 72); fill-opacity: 0.5;"/><g class="points"><path class="point" transform="translate(352.5,250.98)" d="M3,0A3,3 0 1,1 0,-3A3,3 0 0,1 3,0Z" style="opacity: 1; stroke-width: 0px; fill: rgb(115, 175, 72); fill-opacity: 1;"/></g></g></g></g></g><g class="zerolinelayer-above"/><path class="xlines-above crisp" d="M0,0" style="fill: none;"/><path class="ylines-above crisp" d="M0,0" style="fill: none;"/><g class="overlines-above"/><g class="xaxislayer-above"><g class="xtick"><text text-anchor="start" x="0" y="395" transform="translate(124.9,0) rotate(29.999999999999996,0,389)" style="font-family: 'Open Sans', verdana, arial, sans-serif; font-size: 12px; fill: rgb(42, 63, 95); fill-opacity: 1; white-space: pre;">Municipal</text></g><g class="xtick"><text text-anchor="start" x="0" y="395" transform="translate(208.7,0) rotate(29.999999999999996,0,389)" style="font-family: 'Open Sans', verdana, arial, sans-serif; font-size: 12px; fill: rgb(42, 63, 95); fill-opacity: 1; white-space: pre;">Investor Owned</text></g><g class="xtick"><text text-anchor="start" x="0" y="395" transform="translate(292.5,0) rotate(29.999999999999996,0,389)" style="font-family: 'Open Sans', verdana, arial, sans-serif; font-size: 12px; fill: rgb(42, 63, 95); fill-opacity: 1; white-space: pre;">Cooperative</text></g><g class="xtick"><text text-anchor="start" x="0" y="395" transform="translate(376.3,0) rotate(29.999999999999996,0,389)" style="font-family: 'Open Sans', verdana, arial, sans-serif; font-size: 12px; fill: rgb(42, 63, 95); fill-opacity: 1; white-space: pre;">Retail Power Marketer</text></g><g class="xtick"><text text-anchor="start" x="0" y="395" transform="translate(460.1,0) rotate(29.999999999999996,0,389)" style="font-family: 'Open Sans', verdana, arial, sans-serif; font-size: 12px; fill: rgb(42, 63, 95); fill-opacity: 1; white-space: pre;">State</text></g></g><g class="yaxislayer-above"><g class="ytick"><text text-anchor="end" x="79" y="4.199999999999999" transform="translate(0,317.14)" style="font-family: 'Open Sans', verdana, arial, sans-serif; font-size: 12px; fill: rgb(42, 63, 95); fill-opacity: 1; white-space: pre;">0.05</text></g><g class="ytick"><text text-anchor="end" x="79" y="4.199999999999999" style="font-family: 'Open Sans', verdana, arial, sans-serif; font-size: 12px; fill: rgb(42, 63, 95); fill-opacity: 1; white-space: pre;" transform="translate(0,232.54)">0.1</text></g><g class="ytick"><text text-anchor="end" x="79" y="4.199999999999999" style="font-family: 'Open Sans', verdana, arial, sans-serif; font-size: 12px; fill: rgb(42, 63, 95); fill-opacity: 1; white-space: pre;" transform="translate(0,147.94)">0.15</text></g></g><g class="overaxes-above"/></g></g><g class="polarlayer"/><g class="smithlayer"/><g class="ternarylayer"/><g class="geolayer"/><g class="funnelarealayer"/><g class="pielayer"/><g class="iciclelayer"/><g class="treemaplayer"/><g class="sunburstlayer"/><g class="glimages"/><defs id="topdefs-03165d"><g class="clips"/><clipPath id="legend03165d"><rect width="178" height="124" x="0" y="0"/></clipPath></defs><g class="layer-above"><g class="imagelayer"/><g class="shapelayer"/></g><g class="infolayer"><g class="legend" pointer-events="all" transform="translate(510.44,100)"><rect class="bg" shape-rendering="crispEdges" style="stroke: rgb(68, 68, 68); stroke-opacity: 1; fill: rgb(255, 255, 255); fill-opacity: 1; stroke-width: 0px;" width="178" height="124" x="0" y="0"/><g class="scrollbox" transform="" clip-path="url(#legend03165d)"><text class="legendtitletext" text-anchor="start" x="2" y="18.2" style="font-family: 'Open Sans', verdana, arial, sans-serif; font-size: 14px; fill: rgb(42, 63, 95); fill-opacity: 1; white-space: pre; opacity: 1;">Ownership Model</text><g class="groups" transform=""><g class="traces" transform="translate(0,32.7)" style="opacity: 1;"><text class="legendtext" text-anchor="start" x="40" y="4.680000000000001" style="font-family: 'Open Sans', verdana, arial, sans-serif; font-size: 12px; fill: rgb(42, 63, 95); fill-opacity: 1; white-space: pre;">Municipal</text><g class="layers" style="opacity: 1;"><g class="legendfill"/><g class="legendlines"/><g class="legendsymbols"><g class="legendpoints"><path class="legendbox" d="M6,6H-6V-6H6Z" transform="translate(20,0)" style="stroke-width: 2px; fill: rgb(95, 70, 144); fill-opacity: 0.5; stroke: rgb(95, 70, 144); stroke-opacity: 1;"/></g></g></g><rect class="legendtoggle" x="0" y="-9.5" width="172.92578125" height="19" style="fill: rgb(0, 0, 0); fill-opacity: 0;"/></g></g><g class="groups" transform=""><g class="traces" transform="translate(0,51.7)" style="opacity: 1;"><text class="legendtext" text-anchor="start" x="40" y="4.680000000000001" style="font-family: 'Open Sans', verdana, arial, sans-serif; font-size: 12px; fill: rgb(42, 63, 95); fill-opacity: 1; white-space: pre;">Investor Owned</text><g class="layers" style="opacity: 1;"><g class="legendfill"/><g class="legendlines"/><g class="legendsymbols"><g class="legendpoints"><path class="legendbox" d="M6,6H-6V-6H6Z" transform="translate(20,0)" style="stroke-width: 2px; fill: rgb(29, 105, 150); fill-opacity: 0.5; stroke: rgb(29, 105, 150); stroke-opacity: 1;"/></g></g></g><rect class="legendtoggle" x="0" y="-9.5" width="172.92578125" height="19" style="fill: rgb(0, 0, 0); fill-opacity: 0;"/></g></g><g class="groups" transform=""><g class="traces" transform="translate(0,70.7)" style="opacity: 1;"><text class="legendtext" text-anchor="start" x="40" y="4.680000000000001" style="font-family: 'Open Sans', verdana, arial, sans-serif; font-size: 12px; fill: rgb(42, 63, 95); fill-opacity: 1; white-space: pre;">Cooperative</text><g class="layers" style="opacity: 1;"><g class="legendfill"/><g class="legendlines"/><g class="legendsymbols"><g class="legendpoints"><path class="legendbox" d="M6,6H-6V-6H6Z" transform="translate(20,0)" style="stroke-width: 2px; fill: rgb(56, 166, 165); fill-opacity: 0.5; stroke: rgb(56, 166, 165); stroke-opacity: 1;"/></g></g></g><rect class="legendtoggle" x="0" y="-9.5" width="172.92578125" height="19" style="fill: rgb(0, 0, 0); fill-opacity: 0;"/></g></g><g class="groups" transform=""><g class="traces" transform="translate(0,89.7)" style="opacity: 1;"><text class="legendtext" text-anchor="start" x="40" y="4.680000000000001" style="font-family: 'Open Sans', verdana, arial, sans-serif; font-size: 12px; fill: rgb(42, 63, 95); fill-opacity: 1; white-space: pre;">Retail Power Marketer</text><g class="layers" style="opacity: 1;"><g class="legendfill"/><g class="legendlines"/><g class="legendsymbols"><g class="legendpoints"><path class="legendbox" d="M6,6H-6V-6H6Z" transform="translate(20,0)" style="stroke-width: 2px; fill: rgb(15, 133, 84); fill-opacity: 0.5; stroke: rgb(15, 133, 84); stroke-opacity: 1;"/></g></g></g><rect class="legendtoggle" x="0" y="-9.5" width="172.92578125" height="19" style="fill: rgb(0, 0, 0); fill-opacity: 0;"/></g></g><g class="groups" transform=""><g class="traces" transform="translate(0,108.7)" style="opacity: 1;"><text class="legendtext" text-anchor="start" x="40" y="4.680000000000001" style="font-family: 'Open Sans', verdana, arial, sans-serif; font-size: 12px; fill: rgb(42, 63, 95); fill-opacity: 1; white-space: pre;">State</text><g class="layers" style="opacity: 1;"><g class="legendfill"/><g class="legendlines"/><g class="legendsymbols"><g class="legendpoints"><path class="legendbox" d="M6,6H-6V-6H6Z" transform="translate(20,0)" style="stroke-width: 2px; fill: rgb(115, 175, 72); fill-opacity: 0.5; stroke: rgb(115, 175, 72); stroke-opacity: 1;"/></g></g></g><rect class="legendtoggle" x="0" y="-9.5" width="172.92578125" height="19" style="fill: rgb(0, 0, 0); fill-opacity: 0;"/></g></g></g><rect class="scrollbar" rx="20" ry="3" width="0" height="0" style="fill: rgb(128, 139, 164); fill-opacity: 1;" x="0" y="0"/></g><g class="g-gtitle"><text class="gtitle" x="35" y="50" text-anchor="start" dy="0em" style="opacity: 1; font-family: 'Open Sans', verdana, arial, sans-serif; font-size: 17px; fill: rgb(42, 63, 95); fill-opacity: 1; white-space: pre;"><tspan style="font-weight:bold">Utility Type:</tspan> Industrial Price Distribution</text></g><g class="g-xtitle"/><g class="g-ytitle"><text class="ytitle" transform="rotate(-90,32.334375,241)" x="32.334375" y="241" text-anchor="middle" style="opacity: 1; font-family: 'Open Sans', verdana, arial, sans-serif; font-size: 14px; fill: rgb(42, 63, 95); fill-opacity: 1; white-space: pre;">Industrial Rate ($/MWh)</text></g></g></svg>