<svg class="main-svg" xmlns="http://www.w3.org/2000/svg" xmlns:xlink="http://www.w3.org/1999/xlink" width="700" height="500" style="" viewBox="0 0 700 500"><rect x="0" y="0" width="700" height="500" style="fill: rgb(255, 255, 255); fill-opacity: 1;"/><defs id="defs-8a39f7"><g class="clips"><clipPath id="clip8a39f7xyplot" class="plotclip"><rect width="200.45" height="320"/></clipPath><clipPath id="clip8a39f7x2y2plot" class="plotclip"><rect width="200.45" height="320"/></clipPath><clipPath class="axesclip" id="clip8a39f7x"><rect x="80" y="0" width="200.45" height="500"/></clipPath><clipPath class="axesclip" id="clip8a39f7y"><rect x="0" y="100" width="700" height="320"/></clipPath><clipPath class="axesclip" id="clip8a39f7xy"><rect x="80" y="100" width="200.45" height="320"/></clipPath><clipPath class="axesclip" id="clip8a39f7y2"><rect x="0" y="100" width="700" height="320"/></clipPath><clipPath class="axesclip" id="clip8a39f7xy2"><rect x="80" y="100" width="200.45" height="320"/></clipPath><clipPath class="axesclip" id="clip8a39f7x2"><rect x="301.55" y="0" width="200.45" height="500"/></clipPath><clipPath class="axesclip" id="clip8a39f7x2y"><rect x="301.55" y="100" width="200.45" height="320"/></clipPath><clipPath class="axesclip" id="clip8a39f7x2y2"><rect x="301.55" y="100" width="200.45" height="320"/></clipPath></g><g class="gradients"/><g class="patterns"/></defs><g class="bglayer"/><g class="layer-below"><g class="imagelayer"/><g class="shapelayer"/></g><g class="cartesianlayer"><g class="subplot xy"><g class="layer-subplot"><g class="shapelayer"/><g class="imagelayer"/></g><g class="minor-gridlayer"><g class="x"/><g class="y"/></g><g class="gridlayer"><g class="x"><path class="xgrid crisp" transform="translate(151.44,0)" d="M0,100v320" style="stroke: rgb(235, 240, 248); stroke-opacity: 1; stroke-width: 1px;"/><path class="xgrid crisp" transform="translate(212.13,0)" d="M0,100v320" style="stroke: rgb(235, 240, 248); stroke-opacity: 1; stroke-width: 1px;"/><path class="xgrid crisp" transform="translate(272.81,0)" d="M0,100v320" style="stroke: rgb(235, 240, 248); stroke-opacity: 1; stroke-width: 1px;"/></g><g class="y"><path class="ygrid crisp" transform="translate(0,344.86)" d="M80,0h200.45" style="stroke: rgb(235, 240, 248); stroke-opacity: 1; stroke-width: 1px;"/><path class="ygrid crisp" transform="translate(0,302.94)" d="M80,0h200.45" style="stroke: rgb(235, 240, 248); stroke-opacity: 1; stroke-width: 1px;"/><path class="ygrid crisp" transform="translate(0,261.01)" d="M80,0h200.45" style="stroke: rgb(235, 240, 248); stroke-opacity: 1; stroke-width: 1px;"/><path class="ygrid crisp" transform="translate(0,219.09)" d="M80,0h200.45" style="stroke: rgb(235, 240, 248); stroke-opacity: 1; stroke-width: 1px;"/><path class="ygrid crisp" transform="translate(0,177.16)" d="M80,0h200.45" style="stroke: rgb(235, 240, 248); stroke-opacity: 1; stroke-width: 1px;"/><path class="ygrid crisp" transform="translate(0,135.24)" d="M80,0h200.45" style="stroke: rgb(235, 240, 248); stroke-opacity: 1; stroke-width: 1px;"/></g></g><g class="zerolinelayer"><path class="xzl zl crisp" transform="translate(90.76,0)" d="M0,100v320" style="stroke: rgb(235, 240, 248); stroke-opacity: 1; stroke-width: 2px;"/><path class="yzl zl crisp" transform="translate(0,386.78)" d="M80,0h200.45" style="stroke: rgb(235, 240, 248); stroke-opacity: 1; stroke-width: 2px;"/></g><g class="layer-between"><g class="shapelayer"/><g class="imagelayer"/></g><path class="xlines-below"/><path class="ylines-below"/><g class="overlines-below"/><g class="xaxislayer-below"/><g class="yaxislayer-below"/><g class="overaxes-below"/><g class="overplot"><g class="xy" transform="translate(80,100)" clip-path="url(#clip8a39f7xyplot)"><g class="scatterlayer mlayer"><g class="trace scatter trace95c788" style="stroke-miterlimit: 2; opacity: 1;"><g class="fills"/><g class="errorbars"/><g class="lines"/><g class="points"><path class="point" transform="translate(39.77,217.92)" d="M5.14,0A5.14,5.14 0 1,1 0,-5.14A5.14,5.14 0 0,1 5.14,0Z" style="opacity: 0.7; stroke-width: 1px; fill: rgb(95, 70, 144); fill-opacity: 1; stroke: rgb(255, 255, 255); stroke-opacity: 1;"/><path class="point" transform="translate(57.49,250.36)" d="M4.22,0A4.22,4.22 0 1,1 0,-4.22A4.22,4.22 0 0,1 4.22,0Z" style="opacity: 0.7; stroke-width: 1px; fill: rgb(95, 70, 144); fill-opacity: 1; stroke: rgb(255, 255, 255); stroke-opacity: 1;"/><path class="point" transform="translate(141.48,214.71)" d="M4.05,0A4.05,4.05 0 1,1 0,-4.05A4.05,4.05 0 0,1 4.05,0Z" style="opacity: 0.7; stroke-width: 1px; fill: rgb(95, 70, 144); fill-opacity: 1; stroke: rgb(255, 255, 255); stroke-opacity: 1;"/><path class="point" transform="translate(41.1,249.86)" d="M3.99,0A3.99,3.99 0 1,1 0,-3.99A3.99,3.99 0 0,1 3.99,0Z" style="opacity: 0.7; stroke-width: 1px; fill: rgb(95, 70, 144); fill-opacity: 1; stroke: rgb(255, 255, 255); stroke-opacity: 1;"/><path class="point" transform="translate(87.47,182.04)" d="M4.43,0A4.43,4.43 0 1,1 0,-4.43A4.43,4.43 0 0,1 4.43,0Z" style="opacity: 0.7; stroke-width: 1px; fill: rgb(95, 70, 144); fill-opacity: 1; stroke: rgb(255, 255, 255); stroke-opacity: 1;"/></g><g class="text"/></g><g class="trace scatter trace6fb5d2" style="stroke-miterlimit: 2; opacity: 1;"><g class="fills"/><g class="errorbars"/><g class="lines"/><g class="points"><path class="point" transform="translate(56.52,242.9)" d="M4.1,0A4.1,4.1 0 1,1 0,-4.1A4.1,4.1 0 0,1 4.1,0Z" style="opacity: 0.7; stroke-width: 1px; fill: rgb(29, 105, 150); fill-opacity: 1; stroke: rgb(255, 255, 255); stroke-opacity: 1;"/><path class="point" transform="translate(62.46,242.99)" d="M3.64,0A3.64,3.64 0 1,1 0,-3.64A3.64,3.64 0 0,1 3.64,0Z" style="opacity: 0.7; stroke-width: 1px; fill: rgb(29, 105, 150); fill-opacity: 1; stroke: rgb(255, 255, 255); stroke-opacity: 1;"/><path class="point" transform="translate(104.21,233.96)" d="M3.23,0A3.23,3.23 0 1,1 0,-3.23A3.23,3.23 0 0,1 3.23,0Z" style="opacity: 0.7; stroke-width: 1px; fill: rgb(29, 105, 150); fill-opacity: 1; stroke: rgb(255, 255, 255); stroke-opacity: 1;"/><path class="point" transform="translate(36.37,237.05)" d="M4.12,0A4.12,4.12 0 1,1 0,-4.12A4.12,4.12 0 0,1 4.12,0Z" style="opacity: 0.7; stroke-width: 1px; fill: rgb(29, 105, 150); fill-opacity: 1; stroke: rgb(255, 255, 255); stroke-opacity: 1;"/><path class="point" transform="translate(40.01,221.84)" d="M3.17,0A3.17,3.17 0 1,1 0,-3.17A3.17,3.17 0 0,1 3.17,0Z" style="opacity: 0.7; stroke-width: 1px; fill: rgb(29, 105, 150); fill-opacity: 1; stroke: rgb(255, 255, 255); stroke-opacity: 1;"/><path class="point" transform="translate(108.7,243.33)" d="M3.98,0A3.98,3.98 0 1,1 0,-3.98A3.98,3.98 0 0,1 3.98,0Z" style="opacity: 0.7; stroke-width: 1px; fill: rgb(29, 105, 150); fill-opacity: 1; stroke: rgb(255, 255, 255); stroke-opacity: 1;"/><path class="point" transform="translate(59.06,248.31)" d="M3.33,0A3.33,3.33 0 1,1 0,-3.33A3.33,3.33 0 0,1 3.33,0Z" style="opacity: 0.7; stroke-width: 1px; fill: rgb(29, 105, 150); fill-opacity: 1; stroke: rgb(255, 255, 255); stroke-opacity: 1;"/><path class="point" transform="translate(30.78,237.96)" d="M3.15,0A3.15,3.15 0 1,1 0,-3.15A3.15,3.15 0 0,1 3.15,0Z" style="opacity: 0.7; stroke-width: 1px; fill: rgb(29, 105, 150); fill-opacity: 1; stroke: rgb(255, 255, 255); stroke-opacity: 1;"/><path class="point" transform="translate(54.21,231.91)" d="M3.97,0A3.97,3.97 0 1,1 0,-3.97A3.97,3.97 0 0,1 3.97,0Z" style="opacity: 0.7; stroke-width: 1px; fill: rgb(29, 105, 150); fill-opacity: 1; stroke: rgb(255, 255, 255); stroke-opacity: 1;"/><path class="point" transform="translate(57.24,240.22)" d="M4.84,0A4.84,4.84 0 1,1 0,-4.84A4.84,4.84 0 0,1 4.84,0Z" style="opacity: 0.7; stroke-width: 1px; fill: rgb(29, 105, 150); fill-opacity: 1; stroke: rgb(255, 255, 255); stroke-opacity: 1;"/><path class="point" transform="translate(86.62,180.17)" d="M4.74,0A4.74,4.74 0 1,1 0,-4.74A4.74,4.74 0 0,1 4.74,0Z" style="opacity: 0.7; stroke-width: 1px; fill: rgb(29, 105, 150); fill-opacity: 1; stroke: rgb(255, 255, 255); stroke-opacity: 1;"/><path class="point" transform="translate(61.49,195.41)" d="M3.65,0A3.65,3.65 0 1,1 0,-3.65A3.65,3.65 0 0,1 3.65,0Z" style="opacity: 0.7; stroke-width: 1px; fill: rgb(29, 105, 150); fill-opacity: 1; stroke: rgb(255, 255, 255); stroke-opacity: 1;"/><path class="point" transform="translate(61.49,240.79)" d="M3.51,0A3.51,3.51 0 1,1 0,-3.51A3.51,3.51 0 0,1 3.51,0Z" style="opacity: 0.7; stroke-width: 1px; fill: rgb(29, 105, 150); fill-opacity: 1; stroke: rgb(255, 255, 255); stroke-opacity: 1;"/><path class="point" transform="translate(89.16,242.78)" d="M3.44,0A3.44,3.44 0 1,1 0,-3.44A3.44,3.44 0 0,1 3.44,0Z" style="opacity: 0.7; stroke-width: 1px; fill: rgb(29, 105, 150); fill-opacity: 1; stroke: rgb(255, 255, 255); stroke-opacity: 1;"/><path class="point" transform="translate(80.18,245.41)" d="M3.57,0A3.57,3.57 0 1,1 0,-3.57A3.57,3.57 0 0,1 3.57,0Z" style="opacity: 0.7; stroke-width: 1px; fill: rgb(29, 105, 150); fill-opacity: 1; stroke: rgb(255, 255, 255); stroke-opacity: 1;"/><path class="point" transform="translate(15.13,241.87)" d="M4.08,0A4.08,4.08 0 1,1 0,-4.08A4.08,4.08 0 0,1 4.08,0Z" style="opacity: 0.7; stroke-width: 1px; fill: rgb(29, 105, 150); fill-opacity: 1; stroke: rgb(255, 255, 255); stroke-opacity: 1;"/><path class="point" transform="translate(41.47,217.58)" d="M4.85,0A4.85,4.85 0 1,1 0,-4.85A4.85,4.85 0 0,1 4.85,0Z" style="opacity: 0.7; stroke-width: 1px; fill: rgb(29, 105, 150); fill-opacity: 1; stroke: rgb(255, 255, 255); stroke-opacity: 1;"/><path class="point" transform="translate(73.75,240.73)" d="M4.15,0A4.15,4.15 0 1,1 0,-4.15A4.15,4.15 0 0,1 4.15,0Z" style="opacity: 0.7; stroke-width: 1px; fill: rgb(29, 105, 150); fill-opacity: 1; stroke: rgb(255, 255, 255); stroke-opacity: 1;"/><path class="point" transform="translate(60.88,222.78)" d="M3.56,0A3.56,3.56 0 1,1 0,-3.56A3.56,3.56 0 0,1 3.56,0Z" style="opacity: 0.7; stroke-width: 1px; fill: rgb(29, 105, 150); fill-opacity: 1; stroke: rgb(255, 255, 255); stroke-opacity: 1;"/><path class="point" transform="translate(130.55,227.66)" d="M3.27,0A3.27,3.27 0 1,1 0,-3.27A3.27,3.27 0 0,1 3.27,0Z" style="opacity: 0.7; stroke-width: 1px; fill: rgb(29, 105, 150); fill-opacity: 1; stroke: rgb(255, 255, 255); stroke-opacity: 1;"/><path class="point" transform="translate(55.06,235.94)" d="M4.51,0A4.51,4.51 0 1,1 0,-4.51A4.51,4.51 0 0,1 4.51,0Z" style="opacity: 0.7; stroke-width: 1px; fill: rgb(29, 105, 150); fill-opacity: 1; stroke: rgb(255, 255, 255); stroke-opacity: 1;"/><path class="point" transform="translate(99.72,231.84)" d="M3.4,0A3.4,3.4 0 1,1 0,-3.4A3.4,3.4 0 0,1 3.4,0Z" style="opacity: 0.7; stroke-width: 1px; fill: rgb(29, 105, 150); fill-opacity: 1; stroke: rgb(255, 255, 255); stroke-opacity: 1;"/><path class="point" transform="translate(28.11,255.35)" d="M3.94,0A3.94,3.94 0 1,1 0,-3.94A3.94,3.94 0 0,1 3.94,0Z" style="opacity: 0.7; stroke-width: 1px; fill: rgb(29, 105, 150); fill-opacity: 1; stroke: rgb(255, 255, 255); stroke-opacity: 1;"/><path class="point" transform="translate(55.79,248.07)" d="M4.54,0A4.54,4.54 0 1,1 0,-4.54A4.54,4.54 0 0,1 4.54,0Z" style="opacity: 0.7; stroke-width: 1px; fill: rgb(29, 105, 150); fill-opacity: 1; stroke: rgb(255, 255, 255); stroke-opacity: 1;"/><path class="point" transform="translate(53.12,223.55)" d="M3.43,0A3.43,3.43 0 1,1 0,-3.43A3.43,3.43 0 0,1 3.43,0Z" style="opacity: 0.7; stroke-width: 1px; fill: rgb(29, 105, 150); fill-opacity: 1; stroke: rgb(255, 255, 255); stroke-opacity: 1;"/><path class="point" transform="translate(76.91,183.29)" d="M4.59,0A4.59,4.59 0 1,1 0,-4.59A4.59,4.59 0 0,1 4.59,0Z" style="opacity: 0.7; stroke-width: 1px; fill: rgb(29, 105, 150); fill-opacity: 1; stroke: rgb(255, 255, 255); stroke-opacity: 1;"/><path class="point" transform="translate(90.38,262.38)" d="M3.54,0A3.54,3.54 0 1,1 0,-3.54A3.54,3.54 0 0,1 3.54,0Z" style="opacity: 0.7; stroke-width: 1px; fill: rgb(29, 105, 150); fill-opacity: 1; stroke: rgb(255, 255, 255); stroke-opacity: 1;"/><path class="point" transform="translate(45.83,244.61)" d="M4.01,0A4.01,4.01 0 1,1 0,-4.01A4.01,4.01 0 0,1 4.01,0Z" style="opacity: 0.7; stroke-width: 1px; fill: rgb(29, 105, 150); fill-opacity: 1; stroke: rgb(255, 255, 255); stroke-opacity: 1;"/><path class="point" transform="translate(158.1,237.92)" d="M3.73,0A3.73,3.73 0 1,1 0,-3.73A3.73,3.73 0 0,1 3.73,0Z" style="opacity: 0.7; stroke-width: 1px; fill: rgb(29, 105, 150); fill-opacity: 1; stroke: rgb(255, 255, 255); stroke-opacity: 1;"/><path class="point" transform="translate(32.61,238.81)" d="M4.23,0A4.23,4.23 0 1,1 0,-4.23A4.23,4.23 0 0,1 4.23,0Z" style="opacity: 0.7; stroke-width: 1px; fill: rgb(29, 105, 150); fill-opacity: 1; stroke: rgb(255, 255, 255); stroke-opacity: 1;"/><path class="point" transform="translate(116.84,241.56)" d="M3.83,0A3.83,3.83 0 1,1 0,-3.83A3.83,3.83 0 0,1 3.83,0Z" style="opacity: 0.7; stroke-width: 1px; fill: rgb(29, 105, 150); fill-opacity: 1; stroke: rgb(255, 255, 255); stroke-opacity: 1;"/><path class="point" transform="translate(34.18,241.72)" d="M3.99,0A3.99,3.99 0 1,1 0,-3.99A3.99,3.99 0 0,1 3.99,0Z" style="opacity: 0.7; stroke-width: 1px; fill: rgb(29, 105, 150); fill-opacity: 1; stroke: rgb(255, 255, 255); stroke-opacity: 1;"/><path class="point" transform="translate(57.12,255.87)" d="M3.49,0A3.49,3.49 0 1,1 0,-3.49A3.49,3.49 0 0,1 3.49,0Z" style="opacity: 0.7; stroke-width: 1px; fill: rgb(29, 105, 150); fill-opacity: 1; stroke: rgb(255, 255, 255); stroke-opacity: 1;"/><path class="point" transform="translate(101.79,239.04)" d="M3.91,0A3.91,3.91 0 1,1 0,-3.91A3.91,3.91 0 0,1 3.91,0Z" style="opacity: 0.7; stroke-width: 1px; fill: rgb(29, 105, 150); fill-opacity: 1; stroke: rgb(255, 255, 255); stroke-opacity: 1;"/></g><g class="text"/></g><g class="trace scatter trace91a982" style="stroke-miterlimit: 2; opacity: 1;"><g class="fills"/><g class="errorbars"/><g class="lines"/><g class="points"><path class="point" transform="translate(43.04,150.09)" d="M6.24,0A6.24,6.24 0 1,1 0,-6.24A6.24,6.24 0 0,1 6.24,0Z" style="opacity: 0.7; stroke-width: 1px; fill: rgb(56, 166, 165); fill-opacity: 1; stroke: rgb(255, 255, 255); stroke-opacity: 1;"/><path class="point" transform="translate(80.06,91.28)" d="M7.45,0A7.45,7.45 0 1,1 0,-7.45A7.45,7.45 0 0,1 7.45,0Z" style="opacity: 0.7; stroke-width: 1px; fill: rgb(56, 166, 165); fill-opacity: 1; stroke: rgb(255, 255, 255); stroke-opacity: 1;"/><path class="point" transform="translate(186.38,20.05)" d="M3.24,0A3.24,3.24 0 1,1 0,-3.24A3.24,3.24 0 0,1 3.24,0Z" style="opacity: 0.7; stroke-width: 1px; fill: rgb(56, 166, 165); fill-opacity: 1; stroke: rgb(255, 255, 255); stroke-opacity: 1;"/><path class="point" transform="translate(51.3,133.48)" d="M6.98,0A6.98,6.98 0 1,1 0,-6.98A6.98,6.98 0 0,1 6.98,0Z" style="opacity: 0.7; stroke-width: 1px; fill: rgb(56, 166, 165); fill-opacity: 1; stroke: rgb(255, 255, 255); stroke-opacity: 1;"/><path class="point" transform="translate(113.68,198.12)" d="M6.78,0A6.78,6.78 0 1,1 0,-6.78A6.78,6.78 0 0,1 6.78,0Z" style="opacity: 0.7; stroke-width: 1px; fill: rgb(56, 166, 165); fill-opacity: 1; stroke: rgb(255, 255, 255); stroke-opacity: 1;"/><path class="point" transform="translate(45.96,188.44)" d="M7.11,0A7.11,7.11 0 1,1 0,-7.11A7.11,7.11 0 0,1 7.11,0Z" style="opacity: 0.7; stroke-width: 1px; fill: rgb(56, 166, 165); fill-opacity: 1; stroke: rgb(255, 255, 255); stroke-opacity: 1;"/><path class="point" transform="translate(68.9,146.66)" d="M6.11,0A6.11,6.11 0 1,1 0,-6.11A6.11,6.11 0 0,1 6.11,0Z" style="opacity: 0.7; stroke-width: 1px; fill: rgb(56, 166, 165); fill-opacity: 1; stroke: rgb(255, 255, 255); stroke-opacity: 1;"/><path class="point" transform="translate(45.35,184.52)" d="M4.12,0A4.12,4.12 0 1,1 0,-4.12A4.12,4.12 0 0,1 4.12,0Z" style="opacity: 0.7; stroke-width: 1px; fill: rgb(56, 166, 165); fill-opacity: 1; stroke: rgb(255, 255, 255); stroke-opacity: 1;"/><path class="point" transform="translate(105.67,184.87)" d="M6.37,0A6.37,6.37 0 1,1 0,-6.37A6.37,6.37 0 0,1 6.37,0Z" style="opacity: 0.7; stroke-width: 1px; fill: rgb(56, 166, 165); fill-opacity: 1; stroke: rgb(255, 255, 255); stroke-opacity: 1;"/><path class="point" transform="translate(46.32,156.49)" d="M5.54,0A5.54,5.54 0 1,1 0,-5.54A5.54,5.54 0 0,1 5.54,0Z" style="opacity: 0.7; stroke-width: 1px; fill: rgb(56, 166, 165); fill-opacity: 1; stroke: rgb(255, 255, 255); stroke-opacity: 1;"/></g><g class="text"/></g><g class="trace scatter traceda2fc0" style="stroke-miterlimit: 2; opacity: 1;"><g class="fills"/><g class="errorbars"/><g class="lines"/><g class="points"><path class="point" transform="translate(82.37,170.35)" d="M4.29,0A4.29,4.29 0 1,1 0,-4.29A4.29,4.29 0 0,1 4.29,0Z" style="opacity: 0.7; stroke-width: 1px; fill: rgb(15, 133, 84); fill-opacity: 1; stroke: rgb(255, 255, 255); stroke-opacity: 1;"/><path class="point" transform="translate(95.84,182.57)" d="M4.21,0A4.21,4.21 0 1,1 0,-4.21A4.21,4.21 0 0,1 4.21,0Z" style="opacity: 0.7; stroke-width: 1px; fill: rgb(15, 133, 84); fill-opacity: 1; stroke: rgb(255, 255, 255); stroke-opacity: 1;"/><path class="point" transform="translate(92.32,183.23)" d="M4.36,0A4.36,4.36 0 1,1 0,-4.36A4.36,4.36 0 0,1 4.36,0Z" style="opacity: 0.7; stroke-width: 1px; fill: rgb(15, 133, 84); fill-opacity: 1; stroke: rgb(255, 255, 255); stroke-opacity: 1;"/></g><g class="text"/></g><g class="trace scatter tracebfe624" style="stroke-miterlimit: 2; opacity: 1;"><g class="fills"/><g class="errorbars"/><g class="lines"/><g class="points"><path class="point" transform="translate(87.71,115.85)" d="M6.92,0A6.92,6.92 0 1,1 0,-6.92A6.92,6.92 0 0,1 6.92,0Z" style="opacity: 0.7; stroke-width: 1px; fill: rgb(115, 175, 72); fill-opacity: 1; stroke: rgb(255, 255, 255); stroke-opacity: 1;"/></g><g class="text"/></g><g class="trace scatter trace68f223" style="stroke-miterlimit: 2; opacity: 1;"><g class="fills"/><g class="errorbars"/><g class="lines"><path class="js-line" d="M15.13,236.83L186.38,160.12" style="vector-effect: none; fill: none; stroke: rgb(0, 0, 0); stroke-opacity: 1; stroke-dasharray: 9px, 9px; stroke-width: 2px; opacity: 1;"/></g><g class="points"/><g class="text"/></g></g></g></g><g class="zerolinelayer-above"/><path class="xlines-above crisp" d="M0,0" style="fill: none;"/><path class="ylines-above crisp" d="M0,0" style="fill: none;"/><g class="overlines-above"/><g class="xaxislayer-above"><g class="xtick"><text text-anchor="middle" x="0" y="433" transform="translate(90.76,0)" style="font-family: 'Open Sans', verdana, arial, sans-serif; font-size: 12px; fill: rgb(42, 63, 95); fill-opacity: 1; white-space: pre;">0</text></g><g class="xtick"><text text-anchor="middle" x="0" y="433" style="font-family: 'Open Sans', verdana, arial, sans-serif; font-size: 12px; fill: rgb(42, 63, 95); fill-opacity: 1; white-space: pre;" transform="translate(151.44,0)">5</text></g><g class="xtick"><text text-anchor="middle" x="0" y="433" style="font-family: 'Open Sans', verdana, arial, sans-serif; font-size: 12px; fill: rgb(42, 63, 95); fill-opacity: 1; white-space: pre;" transform="translate(212.13,0)">10</text></g><g class="xtick"><text text-anchor="middle" x="0" y="433" style="font-family: 'Open Sans', verdana, arial, sans-serif; font-size: 12px; fill: rgb(42, 63, 95); fill-opacity: 1; white-space: pre;" transform="translate(272.81,0)">15</text></g></g><g class="yaxislayer-above"><g class="ytick"><text text-anchor="end" x="79" y="4.199999999999999" transform="translate(0,386.78)" style="font-family: 'Open Sans', verdana, arial, sans-serif; font-size: 12px; fill: rgb(42, 63, 95); fill-opacity: 1; white-space: pre;">0</text></g><g class="ytick"><text text-anchor="end" x="79" y="4.199999999999999" style="font-family: 'Open Sans', verdana, arial, sans-serif; font-size: 12px; fill: rgb(42, 63, 95); fill-opacity: 1; white-space: pre;" transform="translate(0,344.86)">50</text></g><g class="ytick"><text text-anchor="end" x="79" y="4.199999999999999" style="font-family: 'Open Sans', verdana, arial, sans-serif; font-size: 12px; fill: rgb(42, 63, 95); fill-opacity: 1; white-space: pre;" transform="translate(0,302.94)">100</text></g><g class="ytick"><text text-anchor="end" x="79" y="4.199999999999999" style="font-family: 'Open Sans', verdana, arial, sans-serif; font-size: 12px; fill: rgb(42, 63, 95); fill-opacity: 1; white-space: pre;" transform="translate(0,261.01)">150</text></g><g class="ytick"><text text-anchor="end" x="79" y="4.199999999999999" style="font-family: 'Open Sans', verdana, arial, sans-serif; font-size: 12px; fill: rgb(42, 63, 95); fill-opacity: 1; white-space: pre;" transform="translate(0,219.09)">200</text></g><g class="ytick"><text text-anchor="end" x="79" y="4.199999999999999" style="font-family: 'Open Sans', verdana, arial, sans-serif; font-size: 12px; fill: rgb(42, 63, 95); fill-opacity: 1; white-space: pre;" transform="translate(0,177.16)">250</text></g><g class="ytick"><text text-anchor="end" x="79" y="4.199999999999999" style="font-family: 'Open Sans', verdana, arial, sans-serif; font-size: 12px; fill: rgb(42, 63, 95); fill-opacity: 1; white-space: pre;" transform="translate(0,135.24)">300</text></g></g><g class="overaxes-above"/></g><g class="subplot x2y2"><g class="layer-subplot"><g class="shapelayer"/><g class="imagelayer"/></g><g class="minor-gridlayer"><g class="x2"/><g class="y2"/></g><g class="gridlayer"><g class="x2"><path class="x2grid crisp" transform="translate(360.39,0)" d="M0,100v320" style="stroke: rgb(235, 240, 248); stroke-opacity: 1; stroke-width: 1px;"/><path class="x2grid crisp" transform="translate(421.12,0)" d="M0,100v320" style="stroke: rgb(235, 240, 248); stroke-opacity: 1; stroke-width: 1px;"/><path class="x2grid crisp" transform="translate(481.86,0)" d="M0,100v320" style="stroke: rgb(235, 240, 248); stroke-opacity: 1; stroke-width: 1px;"/></g><g class="y2"><path class="y2grid crisp" transform="translate(0,344.86)" d="M301.55,0h200.45" style="stroke: rgb(235, 240, 248); stroke-opacity: 1; stroke-width: 1px;"/><path class="y2grid crisp" transform="translate(0,302.94)" d="M301.55,0h200.45" style="stroke: rgb(235, 240, 248); stroke-opacity: 1; stroke-width: 1px;"/><path class="y2grid crisp" transform="translate(0,261.01)" d="M301.55,0h200.45" style="stroke: rgb(235, 240, 248); stroke-opacity: 1; stroke-width: 1px;"/><path class="y2grid crisp" transform="translate(0,219.09)" d="M301.55,0h200.45" style="stroke: rgb(235, 240, 248); stroke-opacity: 1; stroke-width: 1px;"/><path class="y2grid crisp" transform="translate(0,177.16)" d="M301.55,0h200.45" style="stroke: rgb(235, 240, 248); stroke-opacity: 1; stroke-width: 1px;"/><path class="y2grid crisp" transform="translate(0,135.24)" d="M301.55,0h200.45" style="stroke: rgb(235, 240, 248); stroke-opacity: 1; stroke-width: 1px;"/></g></g><g class="zerolinelayer"><path class="y2zl zl crisp" transform="translate(0,386.78)" d="M301.55,0h200.45" style="stroke: rgb(235, 240, 248); stroke-opacity: 1; stroke-width: 2px;"/></g><g class="layer-between"><g class="shapelayer"/><g class="imagelayer"/></g><path class="xlines-below"/><path class="ylines-below"/><g class="overlines-below"/><g class="xaxislayer-below"/><g class="yaxislayer-below"/><g class="overaxes-below"/><g class="overplot"><g class="x2y2" transform="translate(301.55,100)" clip-path="url(#clip8a39f7x2y2plot)"><g class="scatterlayer mlayer"><g class="trace scatter traceb957aa" style="stroke-miterlimit: 2; opacity: 1;"><g class="fills"/><g class="errorbars"/><g class="lines"/><g class="points"><path class="point" transform="translate(62.48,217.92)" d="M5.14,0A5.14,5.14 0 1,1 0,-5.14A5.14,5.14 0 0,1 5.14,0Z" style="opacity: 0.7; stroke-width: 1px; fill: rgb(95, 70, 144); fill-opacity: 1; stroke: rgb(255, 255, 255); stroke-opacity: 1;"/><path class="point" transform="translate(79.49,250.36)" d="M4.22,0A4.22,4.22 0 1,1 0,-4.22A4.22,4.22 0 0,1 4.22,0Z" style="opacity: 0.7; stroke-width: 1px; fill: rgb(95, 70, 144); fill-opacity: 1; stroke: rgb(255, 255, 255); stroke-opacity: 1;"/><path class="point" transform="translate(92.85,214.71)" d="M4.05,0A4.05,4.05 0 1,1 0,-4.05A4.05,4.05 0 0,1 4.05,0Z" style="opacity: 0.7; stroke-width: 1px; fill: rgb(95, 70, 144); fill-opacity: 1; stroke: rgb(255, 255, 255); stroke-opacity: 1;"/><path class="point" transform="translate(62.48,249.86)" d="M3.99,0A3.99,3.99 0 1,1 0,-3.99A3.99,3.99 0 0,1 3.99,0Z" style="opacity: 0.7; stroke-width: 1px; fill: rgb(95, 70, 144); fill-opacity: 1; stroke: rgb(255, 255, 255); stroke-opacity: 1;"/><path class="point" transform="translate(52.76,182.04)" d="M4.43,0A4.43,4.43 0 1,1 0,-4.43A4.43,4.43 0 0,1 4.43,0Z" style="opacity: 0.7; stroke-width: 1px; fill: rgb(95, 70, 144); fill-opacity: 1; stroke: rgb(255, 255, 255); stroke-opacity: 1;"/></g><g class="text"/></g><g class="trace scatter tracebfeb2c" style="stroke-miterlimit: 2; opacity: 1;"><g class="fills"/><g class="errorbars"/><g class="lines"/><g class="points"><path class="point" transform="translate(86.77,242.9)" d="M4.1,0A4.1,4.1 0 1,1 0,-4.1A4.1,4.1 0 0,1 4.1,0Z" style="opacity: 0.7; stroke-width: 1px; fill: rgb(29, 105, 150); fill-opacity: 1; stroke: rgb(255, 255, 255); stroke-opacity: 1;"/><path class="point" transform="translate(86.77,242.99)" d="M3.64,0A3.64,3.64 0 1,1 0,-3.64A3.64,3.64 0 0,1 3.64,0Z" style="opacity: 0.7; stroke-width: 1px; fill: rgb(29, 105, 150); fill-opacity: 1; stroke: rgb(255, 255, 255); stroke-opacity: 1;"/><path class="point" transform="translate(186.38,233.96)" d="M3.23,0A3.23,3.23 0 1,1 0,-3.23A3.23,3.23 0 0,1 3.23,0Z" style="opacity: 0.7; stroke-width: 1px; fill: rgb(29, 105, 150); fill-opacity: 1; stroke: rgb(255, 255, 255); stroke-opacity: 1;"/><path class="point" transform="translate(94.06,237.05)" d="M4.12,0A4.12,4.12 0 1,1 0,-4.12A4.12,4.12 0 0,1 4.12,0Z" style="opacity: 0.7; stroke-width: 1px; fill: rgb(29, 105, 150); fill-opacity: 1; stroke: rgb(255, 255, 255); stroke-opacity: 1;"/><path class="point" transform="translate(51.55,221.84)" d="M3.17,0A3.17,3.17 0 1,1 0,-3.17A3.17,3.17 0 0,1 3.17,0Z" style="opacity: 0.7; stroke-width: 1px; fill: rgb(29, 105, 150); fill-opacity: 1; stroke: rgb(255, 255, 255); stroke-opacity: 1;"/><path class="point" transform="translate(94.06,243.33)" d="M3.98,0A3.98,3.98 0 1,1 0,-3.98A3.98,3.98 0 0,1 3.98,0Z" style="opacity: 0.7; stroke-width: 1px; fill: rgb(29, 105, 150); fill-opacity: 1; stroke: rgb(255, 255, 255); stroke-opacity: 1;"/><path class="point" transform="translate(83.13,248.31)" d="M3.33,0A3.33,3.33 0 1,1 0,-3.33A3.33,3.33 0 0,1 3.33,0Z" style="opacity: 0.7; stroke-width: 1px; fill: rgb(29, 105, 150); fill-opacity: 1; stroke: rgb(255, 255, 255); stroke-opacity: 1;"/><path class="point" transform="translate(136.58,237.96)" d="M3.15,0A3.15,3.15 0 1,1 0,-3.15A3.15,3.15 0 0,1 3.15,0Z" style="opacity: 0.7; stroke-width: 1px; fill: rgb(29, 105, 150); fill-opacity: 1; stroke: rgb(255, 255, 255); stroke-opacity: 1;"/><path class="point" transform="translate(84.35,231.91)" d="M3.97,0A3.97,3.97 0 1,1 0,-3.97A3.97,3.97 0 0,1 3.97,0Z" style="opacity: 0.7; stroke-width: 1px; fill: rgb(29, 105, 150); fill-opacity: 1; stroke: rgb(255, 255, 255); stroke-opacity: 1;"/><path class="point" transform="translate(79.49,240.22)" d="M4.84,0A4.84,4.84 0 1,1 0,-4.84A4.84,4.84 0 0,1 4.84,0Z" style="opacity: 0.7; stroke-width: 1px; fill: rgb(29, 105, 150); fill-opacity: 1; stroke: rgb(255, 255, 255); stroke-opacity: 1;"/><path class="point" transform="translate(62.48,180.17)" d="M4.74,0A4.74,4.74 0 1,1 0,-4.74A4.74,4.74 0 0,1 4.74,0Z" style="opacity: 0.7; stroke-width: 1px; fill: rgb(29, 105, 150); fill-opacity: 1; stroke: rgb(255, 255, 255); stroke-opacity: 1;"/><path class="point" transform="translate(64.91,195.41)" d="M3.65,0A3.65,3.65 0 1,1 0,-3.65A3.65,3.65 0 0,1 3.65,0Z" style="opacity: 0.7; stroke-width: 1px; fill: rgb(29, 105, 150); fill-opacity: 1; stroke: rgb(255, 255, 255); stroke-opacity: 1;"/><path class="point" transform="translate(94.06,240.79)" d="M3.51,0A3.51,3.51 0 1,1 0,-3.51A3.51,3.51 0 0,1 3.51,0Z" style="opacity: 0.7; stroke-width: 1px; fill: rgb(29, 105, 150); fill-opacity: 1; stroke: rgb(255, 255, 255); stroke-opacity: 1;"/><path class="point" transform="translate(100.14,242.78)" d="M3.44,0A3.44,3.44 0 1,1 0,-3.44A3.44,3.44 0 0,1 3.44,0Z" style="opacity: 0.7; stroke-width: 1px; fill: rgb(29, 105, 150); fill-opacity: 1; stroke: rgb(255, 255, 255); stroke-opacity: 1;"/><path class="point" transform="translate(66.12,245.41)" d="M3.57,0A3.57,3.57 0 1,1 0,-3.57A3.57,3.57 0 0,1 3.57,0Z" style="opacity: 0.7; stroke-width: 1px; fill: rgb(29, 105, 150); fill-opacity: 1; stroke: rgb(255, 255, 255); stroke-opacity: 1;"/><path class="point" transform="translate(91.63,241.87)" d="M4.08,0A4.08,4.08 0 1,1 0,-4.08A4.08,4.08 0 0,1 4.08,0Z" style="opacity: 0.7; stroke-width: 1px; fill: rgb(29, 105, 150); fill-opacity: 1; stroke: rgb(255, 255, 255); stroke-opacity: 1;"/><path class="point" transform="translate(115.93,217.58)" d="M4.85,0A4.85,4.85 0 1,1 0,-4.85A4.85,4.85 0 0,1 4.85,0Z" style="opacity: 0.7; stroke-width: 1px; fill: rgb(29, 105, 150); fill-opacity: 1; stroke: rgb(255, 255, 255); stroke-opacity: 1;"/><path class="point" transform="translate(130.51,240.73)" d="M4.15,0A4.15,4.15 0 1,1 0,-4.15A4.15,4.15 0 0,1 4.15,0Z" style="opacity: 0.7; stroke-width: 1px; fill: rgb(29, 105, 150); fill-opacity: 1; stroke: rgb(255, 255, 255); stroke-opacity: 1;"/><path class="point" transform="translate(100.14,222.78)" d="M3.56,0A3.56,3.56 0 1,1 0,-3.56A3.56,3.56 0 0,1 3.56,0Z" style="opacity: 0.7; stroke-width: 1px; fill: rgb(29, 105, 150); fill-opacity: 1; stroke: rgb(255, 255, 255); stroke-opacity: 1;"/><path class="point" transform="translate(114.71,227.66)" d="M3.27,0A3.27,3.27 0 1,1 0,-3.27A3.27,3.27 0 0,1 3.27,0Z" style="opacity: 0.7; stroke-width: 1px; fill: rgb(29, 105, 150); fill-opacity: 1; stroke: rgb(255, 255, 255); stroke-opacity: 1;"/><path class="point" transform="translate(97.71,235.94)" d="M4.51,0A4.51,4.51 0 1,1 0,-4.51A4.51,4.51 0 0,1 4.51,0Z" style="opacity: 0.7; stroke-width: 1px; fill: rgb(29, 105, 150); fill-opacity: 1; stroke: rgb(255, 255, 255); stroke-opacity: 1;"/><path class="point" transform="translate(89.2,231.84)" d="M3.4,0A3.4,3.4 0 1,1 0,-3.4A3.4,3.4 0 0,1 3.4,0Z" style="opacity: 0.7; stroke-width: 1px; fill: rgb(29, 105, 150); fill-opacity: 1; stroke: rgb(255, 255, 255); stroke-opacity: 1;"/><path class="point" transform="translate(86.77,255.35)" d="M3.94,0A3.94,3.94 0 1,1 0,-3.94A3.94,3.94 0 0,1 3.94,0Z" style="opacity: 0.7; stroke-width: 1px; fill: rgb(29, 105, 150); fill-opacity: 1; stroke: rgb(255, 255, 255); stroke-opacity: 1;"/><path class="point" transform="translate(129.29,248.07)" d="M4.54,0A4.54,4.54 0 1,1 0,-4.54A4.54,4.54 0 0,1 4.54,0Z" style="opacity: 0.7; stroke-width: 1px; fill: rgb(29, 105, 150); fill-opacity: 1; stroke: rgb(255, 255, 255); stroke-opacity: 1;"/><path class="point" transform="translate(100.14,223.55)" d="M3.43,0A3.43,3.43 0 1,1 0,-3.43A3.43,3.43 0 0,1 3.43,0Z" style="opacity: 0.7; stroke-width: 1px; fill: rgb(29, 105, 150); fill-opacity: 1; stroke: rgb(255, 255, 255); stroke-opacity: 1;"/><path class="point" transform="translate(51.55,183.29)" d="M4.59,0A4.59,4.59 0 1,1 0,-4.59A4.59,4.59 0 0,1 4.59,0Z" style="opacity: 0.7; stroke-width: 1px; fill: rgb(29, 105, 150); fill-opacity: 1; stroke: rgb(255, 255, 255); stroke-opacity: 1;"/><path class="point" transform="translate(147.51,262.38)" d="M3.54,0A3.54,3.54 0 1,1 0,-3.54A3.54,3.54 0 0,1 3.54,0Z" style="opacity: 0.7; stroke-width: 1px; fill: rgb(29, 105, 150); fill-opacity: 1; stroke: rgb(255, 255, 255); stroke-opacity: 1;"/><path class="point" transform="translate(84.35,244.61)" d="M4.01,0A4.01,4.01 0 1,1 0,-4.01A4.01,4.01 0 0,1 4.01,0Z" style="opacity: 0.7; stroke-width: 1px; fill: rgb(29, 105, 150); fill-opacity: 1; stroke: rgb(255, 255, 255); stroke-opacity: 1;"/><path class="point" transform="translate(94.06,237.92)" d="M3.73,0A3.73,3.73 0 1,1 0,-3.73A3.73,3.73 0 0,1 3.73,0Z" style="opacity: 0.7; stroke-width: 1px; fill: rgb(29, 105, 150); fill-opacity: 1; stroke: rgb(255, 255, 255); stroke-opacity: 1;"/><path class="point" transform="translate(97.71,238.81)" d="M4.23,0A4.23,4.23 0 1,1 0,-4.23A4.23,4.23 0 0,1 4.23,0Z" style="opacity: 0.7; stroke-width: 1px; fill: rgb(29, 105, 150); fill-opacity: 1; stroke: rgb(255, 255, 255); stroke-opacity: 1;"/><path class="point" transform="translate(85.56,241.56)" d="M3.83,0A3.83,3.83 0 1,1 0,-3.83A3.83,3.83 0 0,1 3.83,0Z" style="opacity: 0.7; stroke-width: 1px; fill: rgb(29, 105, 150); fill-opacity: 1; stroke: rgb(255, 255, 255); stroke-opacity: 1;"/><path class="point" transform="translate(123.22,241.72)" d="M3.99,0A3.99,3.99 0 1,1 0,-3.99A3.99,3.99 0 0,1 3.99,0Z" style="opacity: 0.7; stroke-width: 1px; fill: rgb(29, 105, 150); fill-opacity: 1; stroke: rgb(255, 255, 255); stroke-opacity: 1;"/><path class="point" transform="translate(90.42,255.87)" d="M3.49,0A3.49,3.49 0 1,1 0,-3.49A3.49,3.49 0 0,1 3.49,0Z" style="opacity: 0.7; stroke-width: 1px; fill: rgb(29, 105, 150); fill-opacity: 1; stroke: rgb(255, 255, 255); stroke-opacity: 1;"/><path class="point" transform="translate(102.57,239.04)" d="M3.91,0A3.91,3.91 0 1,1 0,-3.91A3.91,3.91 0 0,1 3.91,0Z" style="opacity: 0.7; stroke-width: 1px; fill: rgb(29, 105, 150); fill-opacity: 1; stroke: rgb(255, 255, 255); stroke-opacity: 1;"/></g><g class="text"/></g><g class="trace scatter trace8fc965" style="stroke-miterlimit: 2; opacity: 1;"><g class="fills"/><g class="errorbars"/><g class="lines"/><g class="points"><path class="point" transform="translate(32.11,150.09)" d="M6.24,0A6.24,6.24 0 1,1 0,-6.24A6.24,6.24 0 0,1 6.24,0Z" style="opacity: 0.7; stroke-width: 1px; fill: rgb(56, 166, 165); fill-opacity: 1; stroke: rgb(255, 255, 255); stroke-opacity: 1;"/><path class="point" transform="translate(23.61,91.28)" d="M7.45,0A7.45,7.45 0 1,1 0,-7.45A7.45,7.45 0 0,1 7.45,0Z" style="opacity: 0.7; stroke-width: 1px; fill: rgb(56, 166, 165); fill-opacity: 1; stroke: rgb(255, 255, 255); stroke-opacity: 1;"/><path class="point" transform="translate(38.18,20.05)" d="M3.24,0A3.24,3.24 0 1,1 0,-3.24A3.24,3.24 0 0,1 3.24,0Z" style="opacity: 0.7; stroke-width: 1px; fill: rgb(56, 166, 165); fill-opacity: 1; stroke: rgb(255, 255, 255); stroke-opacity: 1;"/><path class="point" transform="translate(18.75,133.48)" d="M6.98,0A6.98,6.98 0 1,1 0,-6.98A6.98,6.98 0 0,1 6.98,0Z" style="opacity: 0.7; stroke-width: 1px; fill: rgb(56, 166, 165); fill-opacity: 1; stroke: rgb(255, 255, 255); stroke-opacity: 1;"/><path class="point" transform="translate(44.26,198.12)" d="M6.78,0A6.78,6.78 0 1,1 0,-6.78A6.78,6.78 0 0,1 6.78,0Z" style="opacity: 0.7; stroke-width: 1px; fill: rgb(56, 166, 165); fill-opacity: 1; stroke: rgb(255, 255, 255); stroke-opacity: 1;"/><path class="point" transform="translate(33.33,188.44)" d="M7.11,0A7.11,7.11 0 1,1 0,-7.11A7.11,7.11 0 0,1 7.11,0Z" style="opacity: 0.7; stroke-width: 1px; fill: rgb(56, 166, 165); fill-opacity: 1; stroke: rgb(255, 255, 255); stroke-opacity: 1;"/><path class="point" transform="translate(23.61,146.66)" d="M6.11,0A6.11,6.11 0 1,1 0,-6.11A6.11,6.11 0 0,1 6.11,0Z" style="opacity: 0.7; stroke-width: 1px; fill: rgb(56, 166, 165); fill-opacity: 1; stroke: rgb(255, 255, 255); stroke-opacity: 1;"/><path class="point" transform="translate(39.4,184.52)" d="M4.12,0A4.12,4.12 0 1,1 0,-4.12A4.12,4.12 0 0,1 4.12,0Z" style="opacity: 0.7; stroke-width: 1px; fill: rgb(56, 166, 165); fill-opacity: 1; stroke: rgb(255, 255, 255); stroke-opacity: 1;"/><path class="point" transform="translate(29.68,184.87)" d="M6.37,0A6.37,6.37 0 1,1 0,-6.37A6.37,6.37 0 0,1 6.37,0Z" style="opacity: 0.7; stroke-width: 1px; fill: rgb(56, 166, 165); fill-opacity: 1; stroke: rgb(255, 255, 255); stroke-opacity: 1;"/><path class="point" transform="translate(33.33,156.49)" d="M5.54,0A5.54,5.54 0 1,1 0,-5.54A5.54,5.54 0 0,1 5.54,0Z" style="opacity: 0.7; stroke-width: 1px; fill: rgb(56, 166, 165); fill-opacity: 1; stroke: rgb(255, 255, 255); stroke-opacity: 1;"/></g><g class="text"/></g><g class="trace scatter trace3d8226" style="stroke-miterlimit: 2; opacity: 1;"><g class="fills"/><g class="errorbars"/><g class="lines"/><g class="points"><path class="point" transform="translate(111.07,170.35)" d="M4.29,0A4.29,4.29 0 1,1 0,-4.29A4.29,4.29 0 0,1 4.29,0Z" style="opacity: 0.7; stroke-width: 1px; fill: rgb(15, 133, 84); fill-opacity: 1; stroke: rgb(255, 255, 255); stroke-opacity: 1;"/><path class="point" transform="translate(58.84,182.57)" d="M4.21,0A4.21,4.21 0 1,1 0,-4.21A4.21,4.21 0 0,1 4.21,0Z" style="opacity: 0.7; stroke-width: 1px; fill: rgb(15, 133, 84); fill-opacity: 1; stroke: rgb(255, 255, 255); stroke-opacity: 1;"/><path class="point" transform="translate(91.63,183.23)" d="M4.36,0A4.36,4.36 0 1,1 0,-4.36A4.36,4.36 0 0,1 4.36,0Z" style="opacity: 0.7; stroke-width: 1px; fill: rgb(15, 133, 84); fill-opacity: 1; stroke: rgb(255, 255, 255); stroke-opacity: 1;"/></g><g class="text"/></g><g class="trace scatter trace7b7f3c" style="stroke-miterlimit: 2; opacity: 1;"><g class="fills"/><g class="errorbars"/><g class="lines"/><g class="points"><path class="point" transform="translate(46.69,115.85)" d="M6.92,0A6.92,6.92 0 1,1 0,-6.92A6.92,6.92 0 0,1 6.92,0Z" style="opacity: 0.7; stroke-width: 1px; fill: rgb(115, 175, 72); fill-opacity: 1; stroke: rgb(255, 255, 255); stroke-opacity: 1;"/></g><g class="text"/></g><g class="trace scatter trace8570ff" style="stroke-miterlimit: 2; opacity: 1;"><g class="fills"/><g class="errorbars"/><g class="lines"><path class="js-line" d="M18.75,156.85L186.38,304" style="vector-effect: none; fill: none; stroke: rgb(0, 0, 0); stroke-opacity: 1; stroke-dasharray: 9px, 9px; stroke-width: 2px; opacity: 1;"/></g><g class="points"/><g class="text"/></g></g></g></g><g class="zerolinelayer-above"/><path class="xlines-above crisp" d="M0,0" style="fill: none;"/><path class="ylines-above crisp" d="M0,0" style="fill: none;"/><g class="overlines-above"/><g class="xaxislayer-above"><g class="x2tick"><text text-anchor="middle" x="0" y="433" transform="translate(360.39,0)" style="font-family: 'Open Sans', verdana, arial, sans-serif; font-size: 12px; fill: rgb(42, 63, 95); fill-opacity: 1; white-space: pre;">0.5</text></g><g class="x2tick"><text text-anchor="middle" x="0" y="433" style="font-family: 'Open Sans', verdana, arial, sans-serif; font-size: 12px; fill: rgb(42, 63, 95); fill-opacity: 1; white-space: pre;" transform="translate(421.12,0)">1</text></g><g class="x2tick"><text text-anchor="middle" x="0" y="433" style="font-family: 'Open Sans', verdana, arial, sans-serif; font-size: 12px; fill: rgb(42, 63, 95); fill-opacity: 1; white-space: pre;" transform="translate(481.86,0)">1.5</text></g></g><g class="yaxislayer-above"/><g class="overaxes-above"/></g></g><g class="polarlayer"/><g class="smithlayer"/><g class="ternarylayer"/><g class="geolayer"/><g class="funnelarealayer"/><g class="pielayer"/><g class="iciclelayer"/><g class="treemaplayer"/><g class="sunburstlayer"/><g class="glimages"/><defs id="topdefs-8a39f7"><g class="clips"/><clipPath id="legend8a39f7"><rect width="178" height="193" x="0" y="0"/></clipPath></defs><g class="layer-above"><g class="imagelayer"/><g class="shapelayer"/></g><g class="infolayer"><g class="legend" pointer-events="all" transform="translate(510.44,100)"><rect class="bg" shape-rendering="crispEdges" style="stroke: rgb(68, 68, 68); stroke-opacity: 1; fill: rgb(255, 255, 255); fill-opacity: 1; stroke-width: 0px;" width="178" height="193" x="0" y="0"/><g class="scrollbox" transform="" clip-path="url(#legend8a39f7)"><text class="legendtitletext" text-anchor="start" x="2" y="18.2" style="font-family: 'Open Sans', verdana, arial, sans-serif; font-size: 14px; fill: rgb(42, 63, 95); fill-opacity: 1; white-space: pre; opacity: 1;">Ownership Model</text><g class="groups" transform=""><g class="traces" transform="translate(0,32.7)" style="opacity: 1;"><text class="legendtext" text-anchor="start" x="40" y="4.680000000000001" style="font-family: 'Open Sans', verdana, arial, sans-serif; font-size: 12px; fill: rgb(42, 63, 95); fill-opacity: 1; white-space: pre;">Retail Power Marketer</text><g class="layers" style="opacity: 1;"><g class="legendfill"/><g class="legendlines"/><g class="legendsymbols"><g class="legendpoints"><path class="scatterpts" transform="translate(20,0)" d="M4.37,0A4.37,4.37 0 1,1 0,-4.37A4.37,4.37 0 0,1 4.37,0Z" style="opacity: 0.7; stroke-width: 1px; fill: rgb(95, 70, 144); fill-opacity: 1; stroke: rgb(255, 255, 255); stroke-opacity: 1;"/></g></g></g><rect class="legendtoggle" x="0" y="-9.5" width="172.92578125" height="19" style="fill: rgb(0, 0, 0); fill-opacity: 0;"/></g></g><g class="groups" transform="translate(0,10)"><g class="traces" transform="translate(0,51.7)" style="opacity: 1;"><text class="legendtext" text-anchor="start" x="40" y="4.680000000000001" style="font-family: 'Open Sans', verdana, arial, sans-serif; font-size: 12px; fill: rgb(42, 63, 95); fill-opacity: 1; white-space: pre;">Municipal</text><g class="layers" style="opacity: 1;"><g class="legendfill"/><g class="legendlines"/><g class="legendsymbols"><g class="legendpoints"><path class="scatterpts" transform="translate(20,0)" d="M3.87,0A3.87,3.87 0 1,1 0,-3.87A3.87,3.87 0 0,1 3.87,0Z" style="opacity: 0.7; stroke-width: 1px; fill: rgb(29, 105, 150); fill-opacity: 1; stroke: rgb(255, 255, 255); stroke-opacity: 1;"/></g></g></g><rect class="legendtoggle" x="0" y="-9.5" width="172.92578125" height="19" style="fill: rgb(0, 0, 0); fill-opacity: 0;"/></g></g><g class="groups" transform="translate(0,20)"><g class="traces" transform="translate(0,70.7)" style="opacity: 1;"><text class="legendtext" text-anchor="start" x="40" y="4.680000000000001" style="font-family: 'Open Sans', verdana, arial, sans-serif; font-size: 12px; fill: rgb(42, 63, 95); fill-opacity: 1; white-space: pre;">Investor Owned</text><g class="layers" style="opacity: 1;"><g class="legendfill"/><g class="legendlines"/><g class="legendsymbols"><g class="legendpoints"><path class="scatterpts" transform="translate(20,0)" d="M5.99,0A5.99,5.99 0 1,1 0,-5.99A5.99,5.99 0 0,1 5.99,0Z" style="opacity: 0.7; stroke-width: 1px; fill: rgb(56, 166, 165); fill-opacity: 1; stroke: rgb(255, 255, 255); stroke-opacity: 1;"/></g></g></g><rect class="legendtoggle" x="0" y="-9.5" width="172.92578125" height="19" style="fill: rgb(0, 0, 0); fill-opacity: 0;"/></g></g><g class="groups" transform="translate(0,30)"><g class="traces" transform="translate(0,89.7)" style="opacity: 1;"><text class="legendtext" text-anchor="start" x="40" y="4.680000000000001" style="font-family: 'Open Sans', verdana, arial, sans-serif; font-size: 12px; fill: rgb(42, 63, 95); fill-opacity: 1; white-space: pre;">Cooperative</text><g class="layers" style="opacity: 1;"><g class="legendfill"/><g class="legendlines"/><g class="legendsymbols"><g class="legendpoints"><path class="scatterpts" transform="translate(20,0)" d="M4.28,0A4.28,4.28 0 1,1 0,-4.28A4.28,4.28 0 0,1 4.28,0Z" style="opacity: 0.7; stroke-width: 1px; fill: rgb(15, 133, 84); fill-opacity: 1; stroke: rgb(255, 255, 255); stroke-opacity: 1;"/></g></g></g><rect class="legendtoggle" x="0" y="-9.5" width="172.92578125" height="19" style="fill: rgb(0, 0, 0); fill-opacity: 0;"/></g></g><g class="groups" transform="translate(0,40)"><g class="traces" transform="translate(0,108.7)" style="opacity: 1;"><text class="legendtext" text-anchor="start" x="40" y="4.680000000000001" style="font-family: 'Open Sans', verdana, arial, sans-serif; font-size: 12px; fill: rgb(42, 63, 95); fill-opacity: 1; white-space: pre;">State</text><g class="layers" style="opacity: 1;"><g class="legendfill"/><g class="legendlines"/><g class="legendsymbols"><g class="legendpoints"><path class="scatterpts" transform="translate(20,0)" d="M6.92,0A6.92,6.92 0 1,1 0,-6.92A6.92,6.92 0 0,1 6.92,0Z" style="opacity: 0.7; stroke-width: 1px; fill: rgb(115, 175, 72); fill-opacity: 1; stroke: rgb(255, 255, 255); stroke-opacity: 1;"/></g></g></g><rect class="legendtoggle" x="0" y="-9.5" width="172.92578125" height="19" style="fill: rgb(0, 0, 0); fill-opacity: 0;"/></g></g><g class="groups" transform="translate(0,50)"><g class="traces" transform="translate(0,127.7)" style="opacity: 1;"><text class="legendtext" text-anchor="start" x="40" y="4.680000000000001" style="font-family: 'Open Sans', verdana, arial, sans-serif; font-size: 12px; fill: rgb(42, 63, 95); fill-opacity: 1; white-space: pre;">Overall Trend</text><g class="layers" style="opacity: 1;"><g class="legendfill"/><g class="legendlines"><path class="js-line" d="M5,0h30" style="fill: none; stroke: rgb(0, 0, 0); stroke-opacity: 1; stroke-dasharray: 9px, 9px; stroke-width: 2px;"/></g><g class="legendsymbols"><g class="legendpoints"/></g></g><rect class="legendtoggle" x="0" y="-9.5" width="172.92578125" height="19" style="fill: rgb(0, 0, 0); fill-opacity: 0;"/></g></g></g><rect class="scrollbar" rx="20" ry="3" width="0" height="0" style="fill: rgb(128, 139, 164); fill-opacity: 1;" x="0" y="0"/></g><g class="g-gtitle"><text class="gtitle" x="35" y="50" text-anchor="start" dy="0em" style="opacity: 1; font-family: 'Open Sans', verdana, arial, sans-serif; font-size: 17px; fill: rgb(42, 63, 95); fill-opacity: 1; white-space: pre;"><tspan style="font-weight:bold">Fairness Audit:</tspan> Correlation of Utility Metrics to Residential Price</text></g><g class="g-xtitle"><text class="xtitle" x="180.225" y="460.3" text-anchor="middle" style="opacity: 1; font-family: 'Open Sans', verdana, arial, sans-serif; font-size: 14px; fill: rgb(42, 63, 95); fill-opacity: 1; white-space: pre;">System Energy Loss (%)</text></g><g class="g-x2title"><text class="x2title" x="401.775" y="460.3" text-anchor="middle" style="opacity: 1; font-family: 'Open Sans', verdana, arial, sans-serif; font-size: 14px; fill: rgb(42, 63, 95); fill-opacity: 1; white-space: pre;">Load Factor</text></g><g class="g-ytitle"><text class="ytitle" transform="rotate(-90,36.709375,260)" x="36.709375" y="260" text-anchor="middle" style="opacity: 1; font-family: 'Open Sans', verdana, arial, sans-serif; font-size: 14px; fill: rgb(42, 63, 95); fill-opacity: 1; white-space: pre;">Residential Price ($/MWh)</text></g><g class="g-y2title"/><g class="annotation" data-index="0" style="opacity: 1;"><g class="annotation-text-g" transform="rotate(0,180.225,88.5)"><g class="cursor-pointer" transform="translate(84,77)"><rect class="bg" x="0.5" y="0.5" width="191" height="22" style="stroke-width: 1px; stroke: rgb(0, 0, 0); stroke-opacity: 0; fill: rgb(0, 0, 0); fill-opacity: 0;"/><text class="annotation-text" text-anchor="middle" x="95.8828125" y="18" style="font-family: 'Open Sans', verdana, arial, sans-serif; font-size: 16px; fill: rgb(42, 63, 95); fill-opacity: 1; white-space: pre;"><tspan style="font-weight:bold">System Loss vs Price</tspan></text></g></g></g><g class="annotation" data-index="1" style="opacity: 1;"><g class="annotation-text-g" transform="rotate(0,401.775,88.5)"><g class="cursor-pointer" transform="translate(309,77)"><rect class="bg" x="0.5" y="0.5" width="185" height="22" style="stroke-width: 1px; stroke: rgb(0, 0, 0); stroke-opacity: 0; fill: rgb(0, 0, 0); fill-opacity: 0;"/><text class="annotation-text" text-anchor="middle" x="92.640625" y="18" style="font-family: 'Open Sans', verdana, arial, sans-serif; font-size: 16px; fill: rgb(42, 63, 95); fill-opacity: 1; white-space: pre;"><tspan style="font-weight:bold">Load Factor vs Price</tspan></text></g></g></g><g class="annotation" data-index="2" style="opacity: 1;"><g class="annotation-text-g" transform="rotate(0,180.225,133.6)"><g class="cursor-pointer" transform="translate(107,126)"><rect class="bg" x="0.5" y="0.5" width="145" height="15" style="stroke-width: 1px; stroke: rgb(0, 0, 0); stroke-opacity: 0.3; fill: rgb(255, 255, 255); fill-opacity: 0.85;"/><text class="annotation-text" text-anchor="middle" x="73.09375" y="12" style="font-family: 'Open Sans', verdana, arial, sans-serif; font-size: 10px; fill: rgb(42, 63, 95); fill-opacity: 1; white-space: pre;"><tspan style="font-weight:bold">R²:</tspan> 0.108  |  <tspan style="font-weight:bold">p:</tspan> 1.6447e-02</text></g></g></g><g class="annotation" data-index="3" style="opacity: 1;"><g class="annotation-text-g" transform="rotate(0,401.775,133.6)"><g class="cursor-pointer" transform="translate(328,126)"><rect class="bg" x="0.5" y="0.5" width="146" height="15" style="stroke-width: 1px; stroke: rgb(0, 0, 0); stroke-opacity: 0.3; fill: rgb(255, 255, 255); fill-opacity: 0.85;"/><text class="annotation-text" text-anchor="middle" x="73.09375" y="12" style="font-family: 'Open Sans', verdana, arial, sans-serif; font-size: 10px; fill: rgb(42, 63, 95); fill-opacity: 1; white-space: pre;"><tspan style="font-weight:bold">R²:</tspan> 0.417  |  <tspan style="font-weight:bold">p:</tspan> 1.7660e-07</text></g></g></g></g></svg>