<svg class="main-svg" xmlns="http://www.w3.org/2000/svg" xmlns:xlink="http://www.w3.org/1999/xlink" width="700" height="500" style="" viewBox="0 0 700 500"><rect x="0" y="0" width="700" height="500" style="fill: rgb(255, 255, 255); fill-opacity: 1;"/><defs id="defs-cbd375"><g class="clips"><clipPath id="clipcbd375xyplot" class="plotclip"><rect width="422" height="282"/></clipPath><clipPath class="axesclip" id="clipcbd375x"><rect x="80" y="0" width="422" height="500"/></clipPath><clipPath class="axesclip" id="clipcbd375y"><rect x="0" y="100" width="700" height="282"/></clipPath><clipPath class="axesclip" id="clipcbd375xy"><rect x="80" y="100" width="422" height="282"/></clipPath></g><g class="gradients"/><g class="patterns"/></defs><g class="bglayer"/><g class="layer-below"><g class="imagelayer"/><g class="shapelayer"/></g><g class="cartesianlayer"><g class="subplot xy"><g class="layer-subplot"><g class="shapelayer"/><g class="imagelayer"/></g><g class="minor-gridlayer"><g class="x"/><g class="y"/></g><g class="gridlayer"><g class="x"/><g class="y"><path class="ygrid crisp" transform="translate(0,349.55)" d="M80,0h422" style="stroke: rgb(235, 240, 248); stroke-opacity: 1; stroke-width: 1px;"/><path class="ygrid crisp" transform="translate(0,305.64)" d="M80,0h422" style="stroke: rgb(235, 240, 248); stroke-opacity: 1; stroke-width: 1px;"/><path class="ygrid crisp" transform="translate(0,261.73)" d="M80,0h422" style="stroke: rgb(235, 240, 248); stroke-opacity: 1; stroke-width: 1px;"/><path class="ygrid crisp" transform="translate(0,217.82999999999998)" d="M80,0h422" style="stroke: rgb(235, 240, 248); stroke-opacity: 1; stroke-width: 1px;"/><path class="ygrid crisp" transform="translate(0,173.92000000000002)" d="M80,0h422" style="stroke: rgb(235, 240, 248); stroke-opacity: 1; stroke-width: 1px;"/><path class="ygrid crisp" transform="translate(0,130.01)" d="M80,0h422" style="stroke: rgb(235, 240, 248); stroke-opacity: 1; stroke-width: 1px;"/></g></g><g class="zerolinelayer"/><g class="layer-between"><g class="shapelayer"/><g class="imagelayer"/></g><path class="xlines-below"/><path class="ylines-below"/><g class="overlines-below"/><g class="xaxislayer-below"/><g class="yaxislayer-below"/><g class="overaxes-below"/><g class="overplot"><g class="xy" transform="translate(80,100)" clip-path="url(#clipcbd375xyplot)"><g class="boxlayer mlayer"><g class="trace boxes" style="opacity: 1;"><path class="box" d="M20.81,200.05H55.03M20.81,221H55.03V176.98H20.81ZM37.92,221V256.67M37.92,176.98V125.54M29.36,256.67H46.47M29.36,125.54H46.47" style="vector-effect: none; stroke-width: 2px; stroke: rgb(95, 70, 144); stroke-opacity: 1; fill: rgb(95, 70, 144); fill-opacity: 0.5;"/><g class="points"><path class="point" transform="translate(13.72,256.67)" d="M3,0A3,3 0 1,1 0,-3A3,3 0 0,1 3,0Z" style="opacity: 1; stroke-width: 0px; fill: rgb(95, 70, 144); fill-opacity: 1;"/><path class="point" transform="translate(10.39,255.92)" d="M3,0A3,3 0 1,1 0,-3A3,3 0 0,1 3,0Z" style="opacity: 1; stroke-width: 0px; fill: rgb(95, 70, 144); fill-opacity: 1;"/><path class="point" transform="translate(14.54,255.31)" d="M3,0A3,3 0 1,1 0,-3A3,3 0 0,1 3,0Z" style="opacity: 1; stroke-width: 0px; fill: rgb(95, 70, 144); fill-opacity: 1;"/><path class="point" transform="translate(9.69,254.78)" d="M3,0A3,3 0 1,1 0,-3A3,3 0 0,1 3,0Z" style="opacity: 1; stroke-width: 0px; fill: rgb(95, 70, 144); fill-opacity: 1;"/><path class="point" transform="translate(11.51,243.67)" d="M3,0A3,3 0 1,1 0,-3A3,3 0 0,1 3,0Z" style="opacity: 1; stroke-width: 0px; fill: rgb(95, 70, 144); fill-opacity: 1;"/><path class="point" transform="translate(13.9,234.66)" d="M3,0A3,3 0 1,1 0,-3A3,3 0 0,1 3,0Z" style="opacity: 1; stroke-width: 0px; fill: rgb(95, 70, 144); fill-opacity: 1;"/><path class="point" transform="translate(12.14,232.14)" d="M3,0A3,3 0 1,1 0,-3A3,3 0 0,1 3,0Z" style="opacity: 1; stroke-width: 0px; fill: rgb(95, 70, 144); fill-opacity: 1;"/><path class="point" transform="translate(13.14,228.43)" d="M3,0A3,3 0 1,1 0,-3A3,3 0 0,1 3,0Z" style="opacity: 1; stroke-width: 0px; fill: rgb(95, 70, 144); fill-opacity: 1;"/><path class="point" transform="translate(11.3,226.28)" d="M3,0A3,3 0 1,1 0,-3A3,3 0 0,1 3,0Z" style="opacity: 1; stroke-width: 0px; fill: rgb(95, 70, 144); fill-opacity: 1;"/><path class="point" transform="translate(9.93,221.91)" d="M3,0A3,3 0 1,1 0,-3A3,3 0 0,1 3,0Z" style="opacity: 1; stroke-width: 0px; fill: rgb(95, 70, 144); fill-opacity: 1;"/><path class="point" transform="translate(13.23,221.33)" d="M3,0A3,3 0 1,1 0,-3A3,3 0 0,1 3,0Z" style="opacity: 1; stroke-width: 0px; fill: rgb(95, 70, 144); fill-opacity: 1;"/><path class="point" transform="translate(11.04,220.01)" d="M3,0A3,3 0 1,1 0,-3A3,3 0 0,1 3,0Z" style="opacity: 1; stroke-width: 0px; fill: rgb(95, 70, 144); fill-opacity: 1;"/><path class="point" transform="translate(14.7,217.97)" d="M3,0A3,3 0 1,1 0,-3A3,3 0 0,1 3,0Z" style="opacity: 1; stroke-width: 0px; fill: rgb(95, 70, 144); fill-opacity: 1;"/><path class="point" transform="translate(8.34,215.31)" d="M3,0A3,3 0 1,1 0,-3A3,3 0 0,1 3,0Z" style="opacity: 1; stroke-width: 0px; fill: rgb(95, 70, 144); fill-opacity: 1;"/><path class="point" transform="translate(9.75,208.94)" d="M3,0A3,3 0 1,1 0,-3A3,3 0 0,1 3,0Z" style="opacity: 1; stroke-width: 0px; fill: rgb(95, 70, 144); fill-opacity: 1;"/><path class="point" transform="translate(15.9,208.51)" d="M3,0A3,3 0 1,1 0,-3A3,3 0 0,1 3,0Z" style="opacity: 1; stroke-width: 0px; fill: rgb(95, 70, 144); fill-opacity: 1;"/><path class="point" transform="translate(11.2,206.39)" d="M3,0A3,3 0 1,1 0,-3A3,3 0 0,1 3,0Z" style="opacity: 1; stroke-width: 0px; fill: rgb(95, 70, 144); fill-opacity: 1;"/><path class="point" transform="translate(8.87,204.88)" d="M3,0A3,3 0 1,1 0,-3A3,3 0 0,1 3,0Z" style="opacity: 1; stroke-width: 0px; fill: rgb(95, 70, 144); fill-opacity: 1;"/><path class="point" transform="translate(10.87,204.59)" d="M3,0A3,3 0 1,1 0,-3A3,3 0 0,1 3,0Z" style="opacity: 1; stroke-width: 0px; fill: rgb(95, 70, 144); fill-opacity: 1;"/><path class="point" transform="translate(12.15,203.3)" d="M3,0A3,3 0 1,1 0,-3A3,3 0 0,1 3,0Z" style="opacity: 1; stroke-width: 0px; fill: rgb(95, 70, 144); fill-opacity: 1;"/><path class="point" transform="translate(14.41,200.77)" d="M3,0A3,3 0 1,1 0,-3A3,3 0 0,1 3,0Z" style="opacity: 1; stroke-width: 0px; fill: rgb(95, 70, 144); fill-opacity: 1;"/><path class="point" transform="translate(12.82,200.05)" d="M3,0A3,3 0 1,1 0,-3A3,3 0 0,1 3,0Z" style="opacity: 1; stroke-width: 0px; fill: rgb(95, 70, 144); fill-opacity: 1;"/><path class="point" transform="translate(10.84,195.51)" d="M3,0A3,3 0 1,1 0,-3A3,3 0 0,1 3,0Z" style="opacity: 1; stroke-width: 0px; fill: rgb(95, 70, 144); fill-opacity: 1;"/><path class="point" transform="translate(8.6,195.31)" d="M3,0A3,3 0 1,1 0,-3A3,3 0 0,1 3,0Z" style="opacity: 1; stroke-width: 0px; fill: rgb(95, 70, 144); fill-opacity: 1;"/><path class="point" transform="translate(12.24,194.04)" d="M3,0A3,3 0 1,1 0,-3A3,3 0 0,1 3,0Z" style="opacity: 1; stroke-width: 0px; fill: rgb(95, 70, 144); fill-opacity: 1;"/><path class="point" transform="translate(11.07,193.28)" d="M3,0A3,3 0 1,1 0,-3A3,3 0 0,1 3,0Z" style="opacity: 1; stroke-width: 0px; fill: rgb(95, 70, 144); fill-opacity: 1;"/><path class="point" transform="translate(14.12,193.12)" d="M3,0A3,3 0 1,1 0,-3A3,3 0 0,1 3,0Z" style="opacity: 1; stroke-width: 0px; fill: rgb(95, 70, 144); fill-opacity: 1;"/><path class="point" transform="translate(11.87,190.85)" d="M3,0A3,3 0 1,1 0,-3A3,3 0 0,1 3,0Z" style="opacity: 1; stroke-width: 0px; fill: rgb(95, 70, 144); fill-opacity: 1;"/><path class="point" transform="translate(9.73,186.31)" d="M3,0A3,3 0 1,1 0,-3A3,3 0 0,1 3,0Z" style="opacity: 1; stroke-width: 0px; fill: rgb(95, 70, 144); fill-opacity: 1;"/><path class="point" transform="translate(8.63,183.76)" d="M3,0A3,3 0 1,1 0,-3A3,3 0 0,1 3,0Z" style="opacity: 1; stroke-width: 0px; fill: rgb(95, 70, 144); fill-opacity: 1;"/><path class="point" transform="translate(14.23,179.6)" d="M3,0A3,3 0 1,1 0,-3A3,3 0 0,1 3,0Z" style="opacity: 1; stroke-width: 0px; fill: rgb(95, 70, 144); fill-opacity: 1;"/><path class="point" transform="translate(9.55,178.22)" d="M3,0A3,3 0 1,1 0,-3A3,3 0 0,1 3,0Z" style="opacity: 1; stroke-width: 0px; fill: rgb(95, 70, 144); fill-opacity: 1;"/><path class="point" transform="translate(14.11,176.56)" d="M3,0A3,3 0 1,1 0,-3A3,3 0 0,1 3,0Z" style="opacity: 1; stroke-width: 0px; fill: rgb(95, 70, 144); fill-opacity: 1;"/><path class="point" transform="translate(12.95,171.8)" d="M3,0A3,3 0 1,1 0,-3A3,3 0 0,1 3,0Z" style="opacity: 1; stroke-width: 0px; fill: rgb(95, 70, 144); fill-opacity: 1;"/><path class="point" transform="translate(11.28,170.85)" d="M3,0A3,3 0 1,1 0,-3A3,3 0 0,1 3,0Z" style="opacity: 1; stroke-width: 0px; fill: rgb(95, 70, 144); fill-opacity: 1;"/><path class="point" transform="translate(10.28,164.93)" d="M3,0A3,3 0 1,1 0,-3A3,3 0 0,1 3,0Z" style="opacity: 1; stroke-width: 0px; fill: rgb(95, 70, 144); fill-opacity: 1;"/><path class="point" transform="translate(13.42,158.29)" d="M3,0A3,3 0 1,1 0,-3A3,3 0 0,1 3,0Z" style="opacity: 1; stroke-width: 0px; fill: rgb(95, 70, 144); fill-opacity: 1;"/><path class="point" transform="translate(12.02,154.92)" d="M3,0A3,3 0 1,1 0,-3A3,3 0 0,1 3,0Z" style="opacity: 1; stroke-width: 0px; fill: rgb(95, 70, 144); fill-opacity: 1;"/><path class="point" transform="translate(13.69,151.63)" d="M3,0A3,3 0 1,1 0,-3A3,3 0 0,1 3,0Z" style="opacity: 1; stroke-width: 0px; fill: rgb(95, 70, 144); fill-opacity: 1;"/><path class="point" transform="translate(10.59,151.23)" d="M3,0A3,3 0 1,1 0,-3A3,3 0 0,1 3,0Z" style="opacity: 1; stroke-width: 0px; fill: rgb(95, 70, 144); fill-opacity: 1;"/><path class="point" transform="translate(13.49,148.22)" d="M3,0A3,3 0 1,1 0,-3A3,3 0 0,1 3,0Z" style="opacity: 1; stroke-width: 0px; fill: rgb(95, 70, 144); fill-opacity: 1;"/><path class="point" transform="translate(12.1,125.54)" d="M3,0A3,3 0 1,1 0,-3A3,3 0 0,1 3,0Z" style="opacity: 1; stroke-width: 0px; fill: rgb(95, 70, 144); fill-opacity: 1;"/><path class="point" transform="translate(11.55,99.58)" d="M3,0A3,3 0 1,1 0,-3A3,3 0 0,1 3,0Z" style="opacity: 1; stroke-width: 0px; fill: rgb(95, 70, 144); fill-opacity: 1;"/></g></g><g class="trace boxes" style="opacity: 1;"><path class="box" d="M90.64,244.07H124.86M90.64,249.28H124.86V235.91H90.64ZM107.75,249.28V267.9M107.75,235.91V220.97M99.2,267.9H116.3M99.2,220.97H116.3" style="vector-effect: none; stroke-width: 2px; stroke: rgb(29, 105, 150); stroke-opacity: 1; fill: rgb(29, 105, 150); fill-opacity: 0.5;"/><g class="points"><path class="point" transform="translate(83.08,267.9)" d="M3,0A3,3 0 1,1 0,-3A3,3 0 0,1 3,0Z" style="opacity: 1; stroke-width: 0px; fill: rgb(29, 105, 150); fill-opacity: 1;"/><path class="point" transform="translate(80.8,261.08)" d="M3,0A3,3 0 1,1 0,-3A3,3 0 0,1 3,0Z" style="opacity: 1; stroke-width: 0px; fill: rgb(29, 105, 150); fill-opacity: 1;"/><path class="point" transform="translate(83.66,260.53)" d="M3,0A3,3 0 1,1 0,-3A3,3 0 0,1 3,0Z" style="opacity: 1; stroke-width: 0px; fill: rgb(29, 105, 150); fill-opacity: 1;"/><path class="point" transform="translate(80.26,259.67)" d="M3,0A3,3 0 1,1 0,-3A3,3 0 0,1 3,0Z" style="opacity: 1; stroke-width: 0px; fill: rgb(29, 105, 150); fill-opacity: 1;"/><path class="point" transform="translate(81.53,256.71)" d="M3,0A3,3 0 1,1 0,-3A3,3 0 0,1 3,0Z" style="opacity: 1; stroke-width: 0px; fill: rgb(29, 105, 150); fill-opacity: 1;"/><path class="point" transform="translate(83.24,256.26)" d="M3,0A3,3 0 1,1 0,-3A3,3 0 0,1 3,0Z" style="opacity: 1; stroke-width: 0px; fill: rgb(29, 105, 150); fill-opacity: 1;"/><path class="point" transform="translate(81.99,255.2)" d="M3,0A3,3 0 1,1 0,-3A3,3 0 0,1 3,0Z" style="opacity: 1; stroke-width: 0px; fill: rgb(29, 105, 150); fill-opacity: 1;"/><path class="point" transform="translate(82.84,253.28)" d="M3,0A3,3 0 1,1 0,-3A3,3 0 0,1 3,0Z" style="opacity: 1; stroke-width: 0px; fill: rgb(29, 105, 150); fill-opacity: 1;"/><path class="point" transform="translate(81.24,253.16)" d="M3,0A3,3 0 1,1 0,-3A3,3 0 0,1 3,0Z" style="opacity: 1; stroke-width: 0px; fill: rgb(29, 105, 150); fill-opacity: 1;"/><path class="point" transform="translate(79.85,252.91)" d="M3,0A3,3 0 1,1 0,-3A3,3 0 0,1 3,0Z" style="opacity: 1; stroke-width: 0px; fill: rgb(29, 105, 150); fill-opacity: 1;"/><path class="point" transform="translate(82.92,250.13)" d="M3,0A3,3 0 1,1 0,-3A3,3 0 0,1 3,0Z" style="opacity: 1; stroke-width: 0px; fill: rgb(29, 105, 150); fill-opacity: 1;"/><path class="point" transform="translate(81.06,249.28)" d="M3,0A3,3 0 1,1 0,-3A3,3 0 0,1 3,0Z" style="opacity: 1; stroke-width: 0px; fill: rgb(29, 105, 150); fill-opacity: 1;"/><path class="point" transform="translate(84.3,247.94)" d="M3,0A3,3 0 1,1 0,-3A3,3 0 0,1 3,0Z" style="opacity: 1; stroke-width: 0px; fill: rgb(29, 105, 150); fill-opacity: 1;"/><path class="point" transform="translate(78.7,247.59)" d="M3,0A3,3 0 1,1 0,-3A3,3 0 0,1 3,0Z" style="opacity: 1; stroke-width: 0px; fill: rgb(29, 105, 150); fill-opacity: 1;"/><path class="point" transform="translate(80.15,247.49)" d="M3,0A3,3 0 1,1 0,-3A3,3 0 0,1 3,0Z" style="opacity: 1; stroke-width: 0px; fill: rgb(29, 105, 150); fill-opacity: 1;"/><path class="point" transform="translate(85.78,247.37)" d="M3,0A3,3 0 1,1 0,-3A3,3 0 0,1 3,0Z" style="opacity: 1; stroke-width: 0px; fill: rgb(29, 105, 150); fill-opacity: 1;"/><path class="point" transform="translate(80.96,246.41)" d="M3,0A3,3 0 1,1 0,-3A3,3 0 0,1 3,0Z" style="opacity: 1; stroke-width: 0px; fill: rgb(29, 105, 150); fill-opacity: 1;"/><path class="point" transform="translate(77.68,246.25)" d="M3,0A3,3 0 1,1 0,-3A3,3 0 0,1 3,0Z" style="opacity: 1; stroke-width: 0px; fill: rgb(29, 105, 150); fill-opacity: 1;"/><path class="point" transform="translate(80.58,246.09)" d="M3,0A3,3 0 1,1 0,-3A3,3 0 0,1 3,0Z" style="opacity: 1; stroke-width: 0px; fill: rgb(29, 105, 150); fill-opacity: 1;"/><path class="point" transform="translate(81.99,245.29)" d="M3,0A3,3 0 1,1 0,-3A3,3 0 0,1 3,0Z" style="opacity: 1; stroke-width: 0px; fill: rgb(29, 105, 150); fill-opacity: 1;"/><path class="point" transform="translate(83.94,245.22)" d="M3,0A3,3 0 1,1 0,-3A3,3 0 0,1 3,0Z" style="opacity: 1; stroke-width: 0px; fill: rgb(29, 105, 150); fill-opacity: 1;"/><path class="point" transform="translate(82.59,245.02)" d="M3,0A3,3 0 1,1 0,-3A3,3 0 0,1 3,0Z" style="opacity: 1; stroke-width: 0px; fill: rgb(29, 105, 150); fill-opacity: 1;"/><path class="point" transform="translate(80.91,244.69)" d="M3,0A3,3 0 1,1 0,-3A3,3 0 0,1 3,0Z" style="opacity: 1; stroke-width: 0px; fill: rgb(29, 105, 150); fill-opacity: 1;"/><path class="point" transform="translate(78.81,243.45)" d="M3,0A3,3 0 1,1 0,-3A3,3 0 0,1 3,0Z" style="opacity: 1; stroke-width: 0px; fill: rgb(29, 105, 150); fill-opacity: 1;"/><path class="point" transform="translate(82.07,243.21)" d="M3,0A3,3 0 1,1 0,-3A3,3 0 0,1 3,0Z" style="opacity: 1; stroke-width: 0px; fill: rgb(29, 105, 150); fill-opacity: 1;"/><path class="point" transform="translate(80.88,242.32)" d="M3,0A3,3 0 1,1 0,-3A3,3 0 0,1 3,0Z" style="opacity: 1; stroke-width: 0px; fill: rgb(29, 105, 150); fill-opacity: 1;"/><path class="point" transform="translate(84.03,242.28)" d="M3,0A3,3 0 1,1 0,-3A3,3 0 0,1 3,0Z" style="opacity: 1; stroke-width: 0px; fill: rgb(29, 105, 150); fill-opacity: 1;"/><path class="point" transform="translate(81.77,241.36)" d="M3,0A3,3 0 1,1 0,-3A3,3 0 0,1 3,0Z" style="opacity: 1; stroke-width: 0px; fill: rgb(29, 105, 150); fill-opacity: 1;"/><path class="point" transform="translate(79.87,240.5)" d="M3,0A3,3 0 1,1 0,-3A3,3 0 0,1 3,0Z" style="opacity: 1; stroke-width: 0px; fill: rgb(29, 105, 150); fill-opacity: 1;"/><path class="point" transform="translate(78.89,240.2)" d="M3,0A3,3 0 1,1 0,-3A3,3 0 0,1 3,0Z" style="opacity: 1; stroke-width: 0px; fill: rgb(29, 105, 150); fill-opacity: 1;"/><path class="point" transform="translate(83.68,240.18)" d="M3,0A3,3 0 1,1 0,-3A3,3 0 0,1 3,0Z" style="opacity: 1; stroke-width: 0px; fill: rgb(29, 105, 150); fill-opacity: 1;"/><path class="point" transform="translate(79.74,240.11)" d="M3,0A3,3 0 1,1 0,-3A3,3 0 0,1 3,0Z" style="opacity: 1; stroke-width: 0px; fill: rgb(29, 105, 150); fill-opacity: 1;"/><path class="point" transform="translate(83.56,238.13)" d="M3,0A3,3 0 1,1 0,-3A3,3 0 0,1 3,0Z" style="opacity: 1; stroke-width: 0px; fill: rgb(29, 105, 150); fill-opacity: 1;"/><path class="point" transform="translate(82.64,235.99)" d="M3,0A3,3 0 1,1 0,-3A3,3 0 0,1 3,0Z" style="opacity: 1; stroke-width: 0px; fill: rgb(29, 105, 150); fill-opacity: 1;"/><path class="point" transform="translate(81.34,235.91)" d="M3,0A3,3 0 1,1 0,-3A3,3 0 0,1 3,0Z" style="opacity: 1; stroke-width: 0px; fill: rgb(29, 105, 150); fill-opacity: 1;"/><path class="point" transform="translate(80.66,231.54)" d="M3,0A3,3 0 1,1 0,-3A3,3 0 0,1 3,0Z" style="opacity: 1; stroke-width: 0px; fill: rgb(29, 105, 150); fill-opacity: 1;"/><path class="point" transform="translate(83.12,230.89)" d="M3,0A3,3 0 1,1 0,-3A3,3 0 0,1 3,0Z" style="opacity: 1; stroke-width: 0px; fill: rgb(29, 105, 150); fill-opacity: 1;"/><path class="point" transform="translate(81.85,227.4)" d="M3,0A3,3 0 1,1 0,-3A3,3 0 0,1 3,0Z" style="opacity: 1; stroke-width: 0px; fill: rgb(29, 105, 150); fill-opacity: 1;"/><path class="point" transform="translate(83.11,227.23)" d="M3,0A3,3 0 1,1 0,-3A3,3 0 0,1 3,0Z" style="opacity: 1; stroke-width: 0px; fill: rgb(29, 105, 150); fill-opacity: 1;"/><path class="point" transform="translate(81,226.43)" d="M3,0A3,3 0 1,1 0,-3A3,3 0 0,1 3,0Z" style="opacity: 1; stroke-width: 0px; fill: rgb(29, 105, 150); fill-opacity: 1;"/><path class="point" transform="translate(82.92,225.43)" d="M3,0A3,3 0 1,1 0,-3A3,3 0 0,1 3,0Z" style="opacity: 1; stroke-width: 0px; fill: rgb(29, 105, 150); fill-opacity: 1;"/><path class="point" transform="translate(81.98,223.75)" d="M3,0A3,3 0 1,1 0,-3A3,3 0 0,1 3,0Z" style="opacity: 1; stroke-width: 0px; fill: rgb(29, 105, 150); fill-opacity: 1;"/><path class="point" transform="translate(81.6,220.97)" d="M3,0A3,3 0 1,1 0,-3A3,3 0 0,1 3,0Z" style="opacity: 1; stroke-width: 0px; fill: rgb(29, 105, 150); fill-opacity: 1;"/><path class="point" transform="translate(80.96,197.75)" d="M3,0A3,3 0 1,1 0,-3A3,3 0 0,1 3,0Z" style="opacity: 1; stroke-width: 0px; fill: rgb(29, 105, 150); fill-opacity: 1;"/><path class="point" transform="translate(81.67,185.07)" d="M3,0A3,3 0 1,1 0,-3A3,3 0 0,1 3,0Z" style="opacity: 1; stroke-width: 0px; fill: rgb(29, 105, 150); fill-opacity: 1;"/><path class="point" transform="translate(82.75,181.8)" d="M3,0A3,3 0 1,1 0,-3A3,3 0 0,1 3,0Z" style="opacity: 1; stroke-width: 0px; fill: rgb(29, 105, 150); fill-opacity: 1;"/></g></g><g class="trace boxes" style="opacity: 1;"><path class="box" d="M160.47,153.65H194.69M160.47,186.72H194.69V132.89H160.47ZM177.58,186.72V200.6M177.58,132.89V88.71M169.03,200.6H186.14M169.03,88.71H186.14" style="vector-effect: none; stroke-width: 2px; stroke: rgb(56, 166, 165); stroke-opacity: 1; fill: rgb(56, 166, 165); fill-opacity: 0.5;"/><g class="points"><path class="point" transform="translate(154.44,200.6)" d="M3,0A3,3 0 1,1 0,-3A3,3 0 0,1 3,0Z" style="opacity: 1; stroke-width: 0px; fill: rgb(56, 166, 165); fill-opacity: 1;"/><path class="point" transform="translate(148.65,190.46)" d="M3,0A3,3 0 1,1 0,-3A3,3 0 0,1 3,0Z" style="opacity: 1; stroke-width: 0px; fill: rgb(56, 166, 165); fill-opacity: 1;"/><path class="point" transform="translate(155.76,186.72)" d="M3,0A3,3 0 1,1 0,-3A3,3 0 0,1 3,0Z" style="opacity: 1; stroke-width: 0px; fill: rgb(56, 166, 165); fill-opacity: 1;"/><path class="point" transform="translate(148.44,186.36)" d="M3,0A3,3 0 1,1 0,-3A3,3 0 0,1 3,0Z" style="opacity: 1; stroke-width: 0px; fill: rgb(56, 166, 165); fill-opacity: 1;"/><path class="point" transform="translate(151.09,157)" d="M3,0A3,3 0 1,1 0,-3A3,3 0 0,1 3,0Z" style="opacity: 1; stroke-width: 0px; fill: rgb(56, 166, 165); fill-opacity: 1;"/><path class="point" transform="translate(153.69,150.3)" d="M3,0A3,3 0 1,1 0,-3A3,3 0 0,1 3,0Z" style="opacity: 1; stroke-width: 0px; fill: rgb(56, 166, 165); fill-opacity: 1;"/><path class="point" transform="translate(151.8,146.7)" d="M3,0A3,3 0 1,1 0,-3A3,3 0 0,1 3,0Z" style="opacity: 1; stroke-width: 0px; fill: rgb(56, 166, 165); fill-opacity: 1;"/><path class="point" transform="translate(152.82,132.89)" d="M3,0A3,3 0 1,1 0,-3A3,3 0 0,1 3,0Z" style="opacity: 1; stroke-width: 0px; fill: rgb(56, 166, 165); fill-opacity: 1;"/><path class="point" transform="translate(151,88.71)" d="M3,0A3,3 0 1,1 0,-3A3,3 0 0,1 3,0Z" style="opacity: 1; stroke-width: 0px; fill: rgb(56, 166, 165); fill-opacity: 1;"/><path class="point" transform="translate(149.81,14.1)" d="M3,0A3,3 0 1,1 0,-3A3,3 0 0,1 3,0Z" style="opacity: 1; stroke-width: 0px; fill: rgb(56, 166, 165); fill-opacity: 1;"/></g></g><g class="trace boxes" style="opacity: 1;"><path class="box" d="M230.31,177.91H264.53M230.31,184.66H264.53V111.62H230.31ZM247.42,184.66V185M247.42,111.62V51.73M238.86,185H255.97M238.86,51.73H255.97" style="vector-effect: none; stroke-width: 2px; stroke: rgb(15, 133, 84); stroke-opacity: 1; fill: rgb(15, 133, 84); fill-opacity: 0.5;"/><g class="points"><path class="point" transform="translate(224.42,185)" d="M3,0A3,3 0 1,1 0,-3A3,3 0 0,1 3,0Z" style="opacity: 1; stroke-width: 0px; fill: rgb(15, 133, 84); fill-opacity: 1;"/><path class="point" transform="translate(218.48,184.31)" d="M3,0A3,3 0 1,1 0,-3A3,3 0 0,1 3,0Z" style="opacity: 1; stroke-width: 0px; fill: rgb(15, 133, 84); fill-opacity: 1;"/><path class="point" transform="translate(225.73,171.52)" d="M3,0A3,3 0 1,1 0,-3A3,3 0 0,1 3,0Z" style="opacity: 1; stroke-width: 0px; fill: rgb(15, 133, 84); fill-opacity: 1;"/><path class="point" transform="translate(217.41,51.73)" d="M3,0A3,3 0 1,1 0,-3A3,3 0 0,1 3,0Z" style="opacity: 1; stroke-width: 0px; fill: rgb(15, 133, 84); fill-opacity: 1;"/></g></g><g class="trace boxes" style="opacity: 1;"><path class="box" d="M300.14,114.44H334.36M300.14,114.44H334.36V114.44H300.14ZM317.25,114.44V114.44M317.25,114.44V114.44M308.7,114.44H325.8M308.7,114.44H325.8" style="vector-effect: none; stroke-width: 2px; stroke: rgb(115, 175, 72); stroke-opacity: 1; fill: rgb(115, 175, 72); fill-opacity: 0.5;"/><g class="points"><path class="point" transform="translate(294.25,114.44)" d="M3,0A3,3 0 1,1 0,-3A3,3 0 0,1 3,0Z" style="opacity: 1; stroke-width: 0px; fill: rgb(115, 175, 72); fill-opacity: 1;"/></g></g><g class="trace boxes" style="opacity: 1;"><path class="box" d="M369.97,160.74H404.19M369.97,160.74H404.19V160.74H369.97ZM387.08,160.74V160.74M387.08,160.74V160.74M378.53,160.74H395.64M378.53,160.74H395.64" style="vector-effect: none; stroke-width: 2px; stroke: rgb(237, 173, 8); stroke-opacity: 1; fill: rgb(237, 173, 8); fill-opacity: 0.5;"/><g class="points"><path class="point" transform="translate(364.08,160.74)" d="M3,0A3,3 0 1,1 0,-3A3,3 0 0,1 3,0Z" style="opacity: 1; stroke-width: 0px; fill: rgb(237, 173, 8); fill-opacity: 1;"/></g></g></g></g></g><g class="zerolinelayer-above"/><path class="xlines-above crisp" d="M0,0" style="fill: none;"/><path class="ylines-above crisp" d="M0,0" style="fill: none;"/><g class="overlines-above"/><g class="xaxislayer-above"><g class="xtick"><text text-anchor="start" x="0" y="395" transform="translate(117.92,0) rotate(29.999999999999996,0,389)" style="font-family: 'Open Sans', verdana, arial, sans-serif; font-size: 12px; fill: rgb(42, 63, 95); fill-opacity: 1; white-space: pre;">Retail Power Marketer</text></g><g class="xtick"><text text-anchor="start" x="0" y="395" transform="translate(187.75,0) rotate(29.999999999999996,0,389)" style="font-family: 'Open Sans', verdana, arial, sans-serif; font-size: 12px; fill: rgb(42, 63, 95); fill-opacity: 1; white-space: pre;">Municipal</text></g><g class="xtick"><text text-anchor="start" x="0" y="395" transform="translate(257.58000000000004,0) rotate(29.999999999999996,0,389)" style="font-family: 'Open Sans', verdana, arial, sans-serif; font-size: 12px; fill: rgb(42, 63, 95); fill-opacity: 1; white-space: pre;">Investor Owned</text></g><g class="xtick"><text text-anchor="start" x="0" y="395" transform="translate(327.41999999999996,0) rotate(29.999999999999996,0,389)" style="font-family: 'Open Sans', verdana, arial, sans-serif; font-size: 12px; fill: rgb(42, 63, 95); fill-opacity: 1; white-space: pre;">Cooperative</text></g><g class="xtick"><text text-anchor="start" x="0" y="395" transform="translate(397.25,0) rotate(29.999999999999996,0,389)" style="font-family: 'Open Sans', verdana, arial, sans-serif; font-size: 12px; fill: rgb(42, 63, 95); fill-opacity: 1; white-space: pre;">State</text></g><g class="xtick"><text text-anchor="start" x="0" y="395" transform="translate(467.08,0) rotate(29.999999999999996,0,389)" style="font-family: 'Open Sans', verdana, arial, sans-serif; font-size: 12px; fill: rgb(42, 63, 95); fill-opacity: 1; white-space: pre;">Behind the Meter</text></g></g><g class="yaxislayer-above"><g class="ytick"><text text-anchor="end" x="79" y="4.199999999999999" transform="translate(0,349.55)" style="font-family: 'Open Sans', verdana, arial, sans-serif; font-size: 12px; fill: rgb(42, 63, 95); fill-opacity: 1; white-space: pre;">50</text></g><g class="ytick"><text text-anchor="end" x="79" y="4.199999999999999" style="font-family: 'Open Sans', verdana, arial, sans-serif; font-size: 12px; fill: rgb(42, 63, 95); fill-opacity: 1; white-space: pre;" transform="translate(0,305.64)">100</text></g><g class="ytick"><text text-anchor="end" x="79" y="4.199999999999999" style="font-family: 'Open Sans', verdana, arial, sans-serif; font-size: 12px; fill: rgb(42, 63, 95); fill-opacity: 1; white-space: pre;" transform="translate(0,261.73)">150</text></g><g class="ytick"><text text-anchor="end" x="79" y="4.199999999999999" style="font-family: 'Open Sans', verdana, arial, sans-serif; font-size: 12px; fill: rgb(42, 63, 95); fill-opacity: 1; white-space: pre;" transform="translate(0,217.82999999999998)">200</text></g><g class="ytick"><text text-anchor="end" x="79" y="4.199999999999999" style="font-family: 'Open Sans', verdana, arial, sans-serif; font-size: 12px; fill: rgb(42, 63, 95); fill-opacity: 1; white-space: pre;" transform="translate(0,173.92000000000002)">250</text></g><g class="ytick"><text text-anchor="end" x="79" y="4.199999999999999" style="font-family: 'Open Sans', verdana, arial, sans-serif; font-size: 12px; fill: rgb(42, 63, 95); fill-opacity: 1; white-space: pre;" transform="translate(0,130.01)">300</text></g></g><g class="overaxes-above"/></g></g><g class="polarlayer"/><g class="smithlayer"/><g class="ternarylayer"/><g class="geolayer"/><g class="funnelarealayer"/><g class="pielayer"/><g class="iciclelayer"/><g class="treemaplayer"/><g class="sunburstlayer"/><g class="glimages"/><defs id="topdefs-cbd375"><g class="clips"/><clipPath id="legendcbd375"><rect width="178" height="143" x="0" y="0"/></clipPath></defs><g class="layer-above"><g class="imagelayer"/><g class="shapelayer"/></g><g class="infolayer"><g class="legend" pointer-events="all" transform="translate(510.44,100)"><rect class="bg" shape-rendering="crispEdges" style="stroke: rgb(68, 68, 68); stroke-opacity: 1; fill: rgb(255, 255, 255); fill-opacity: 1; stroke-width: 0px;" width="178" height="143" x="0" y="0"/><g class="scrollbox" transform="" clip-path="url(#legendcbd375)"><text class="legendtitletext" text-anchor="start" x="2" y="18.2" style="font-family: 'Open Sans', verdana, arial, sans-serif; font-size: 14px; fill: rgb(42, 63, 95); fill-opacity: 1; white-space: pre; opacity: 1;">Ownership Model</text><g class="groups" transform=""><g class="traces" transform="translate(0,32.7)" style="opacity: 1;"><text class="legendtext" text-anchor="start" x="40" y="4.680000000000001" style="font-family: 'Open Sans', verdana, arial, sans-serif; font-size: 12px; fill: rgb(42, 63, 95); fill-opacity: 1; white-space: pre;">Retail Power Marketer</text><g class="layers" style="opacity: 1;"><g class="legendfill"/><g class="legendlines"/><g class="legendsymbols"><g class="legendpoints"><path class="legendbox" d="M6,6H-6V-6H6Z" transform="translate(20,0)" style="stroke-width: 2px; fill: rgb(95, 70, 144); fill-opacity: 0.5; stroke: rgb(95, 70, 144); stroke-opacity: 1;"/></g></g></g><rect class="legendtoggle" x="0" y="-9.5" width="172.92578125" height="19" style="fill: rgb(0, 0, 0); fill-opacity: 0;"/></g></g><g class="groups" transform=""><g class="traces" transform="translate(0,51.7)" style="opacity: 1;"><text class="legendtext" text-anchor="start" x="40" y="4.680000000000001" style="font-family: 'Open Sans', verdana, arial, sans-serif; font-size: 12px; fill: rgb(42, 63, 95); fill-opacity: 1; white-space: pre;">Municipal</text><g class="layers" style="opacity: 1;"><g class="legendfill"/><g class="legendlines"/><g class="legendsymbols"><g class="legendpoints"><path class="legendbox" d="M6,6H-6V-6H6Z" transform="translate(20,0)" style="stroke-width: 2px; fill: rgb(29, 105, 150); fill-opacity: 0.5; stroke: rgb(29, 105, 150); stroke-opacity: 1;"/></g></g></g><rect class="legendtoggle" x="0" y="-9.5" width="172.92578125" height="19" style="fill: rgb(0, 0, 0); fill-opacity: 0;"/></g></g><g class="groups" transform=""><g class="traces" transform="translate(0,70.7)" style="opacity: 1;"><text class="legendtext" text-anchor="start" x="40" y="4.680000000000001" style="font-family: 'Open Sans', verdana, arial, sans-serif; font-size: 12px; fill: rgb(42, 63, 95); fill-opacity: 1; white-space: pre;">Investor Owned</text><g class="layers" style="opacity: 1;"><g class="legendfill"/><g class="legendlines"/><g class="legendsymbols"><g class="legendpoints"><path class="legendbox" d="M6,6H-6V-6H6Z" transform="translate(20,0)" style="stroke-width: 2px; fill: rgb(56, 166, 165); fill-opacity: 0.5; stroke: rgb(56, 166, 165); stroke-opacity: 1;"/></g></g></g><rect class="legendtoggle" x="0" y="-9.5" width="172.92578125" height="19" style="fill: rgb(0, 0, 0); fill-opacity: 0;"/></g></g><g class="groups" transform=""><g class="traces" transform="translate(0,89.7)" style="opacity: 1;"><text class="legendtext" text-anchor="start" x="40" y="4.680000000000001" style="font-family: 'Open Sans', verdana, arial, sans-serif; font-size: 12px; fill: rgb(42, 63, 95); fill-opacity: 1; white-space: pre;">Cooperative</text><g class="layers" style="opacity: 1;"><g class="legendfill"/><g class="legendlines"/><g class="legendsymbols"><g class="legendpoints"><path class="legendbox" d="M6,6H-6V-6H6Z" transform="translate(20,0)" style="stroke-width: 2px; fill: rgb(15, 133, 84); fill-opacity: 0.5; stroke: rgb(15, 133, 84); stroke-opacity: 1;"/></g></g></g><rect class="legendtoggle" x="0" y="-9.5" width="172.92578125" height="19" style="fill: rgb(0, 0, 0); fill-opacity: 0;"/></g></g><g class="groups" transform=""><g class="traces" transform="translate(0,108.7)" style="opacity: 1;"><text class="legendtext" text-anchor="start" x="40" y="4.680000000000001" style="font-family: 'Open Sans', verdana, arial, sans-serif; font-size: 12px; fill: rgb(42, 63, 95); fill-opacity: 1; white-space: pre;">State</text><g class="layers" style="opacity: 1;"><g class="legendfill"/><g class="legendlines"/><g class="legendsymbols"><g class="legendpoints"><path class="legendbox" d="M6,6H-6V-6H6Z" transform="translate(20,0)" style="stroke-width: 2px; fill: rgb(115, 175, 72); fill-opacity: 0.5; stroke: rgb(115, 175, 72); stroke-opacity: 1;"/></g></g></g><rect class="legendtoggle" x="0" y="-9.5" width="172.92578125" height="19" style="fill: rgb(0, 0, 0); fill-opacity: 0;"/></g></g><g class="groups" transform=""><g class="traces" transform="translate(0,127.7)" style="opacity: 1;"><text class="legendtext" text-anchor="start" x="40" y="4.680000000000001" style="font-family: 'Open Sans', verdana, arial, sans-serif; font-size: 12px; fill: rgb(42, 63, 95); fill-opacity: 1; white-space: pre;">Behind the Meter</text><g class="layers" style="opacity: 1;"><g class="legendfill"/><g class="legendlines"/><g class="legendsymbols"><g class="legendpoints"><path class="legendbox" d="M6,6H-6V-6H6Z" transform="translate(20,0)" style="stroke-width: 2px; fill: rgb(237, 173, 8); fill-opacity: 0.5; stroke: rgb(237, 173, 8); stroke-opacity: 1;"/></g></g></g><rect class="legendtoggle" x="0" y="-9.5" width="172.92578125" height="19" style="fill: rgb(0, 0, 0); fill-opacity: 0;"/></g></g></g><rect class="scrollbar" rx="20" ry="3" width="0" height="0" style="fill: rgb(128, 139, 164); fill-opacity: 1;" x="0" y="0"/></g><g class="g-gtitle"><text class="gtitle" x="35" y="50" text-anchor="start" dy="0em" style="opacity: 1; font-family: 'Open Sans', verdana, arial, sans-serif; font-size: 17px; fill: rgb(42, 63, 95); fill-opacity: 1; white-space: pre;"><tspan style="font-weight:bold">Utility Type:</tspan> Residential Price Distribution</text></g><g class="g-xtitle"/><g class="g-ytitle"><text class="ytitle" transform="rotate(-90,36.709375,241)" x="36.709375" y="241" text-anchor="middle" style="opacity: 1; font-family: 'Open Sans', verdana, arial, sans-serif; font-size: 14px; fill: rgb(42, 63, 95); fill-opacity: 1; white-space: pre;">Residential Rate ($/MWh)</text></g></g></svg>