<svg class="main-svg" xmlns="http://www.w3.org/2000/svg" xmlns:xlink="http://www.w3.org/1999/xlink" width="700" height="500" style="" viewBox="0 0 700 500"><rect x="0" y="0" width="700" height="500" style="fill: rgb(255, 255, 255); fill-opacity: 1;"/><defs id="defs-e8ff69"><g class="clips"><clipPath id="clipe8ff69xyplot" class="plotclip"><rect width="540" height="282"/></clipPath><clipPath class="axesclip" id="clipe8ff69x"><rect x="80" y="0" width="540" height="500"/></clipPath><clipPath class="axesclip" id="clipe8ff69y"><rect x="0" y="100" width="700" height="282"/></clipPath><clipPath class="axesclip" id="clipe8ff69xy"><rect x="80" y="100" width="540" height="282"/></clipPath></g><g class="gradients"/><g class="patterns"/></defs><g class="bglayer"/><g class="layer-below"><g class="imagelayer"/><g class="shapelayer"/></g><g class="cartesianlayer"><g class="subplot xy"><g class="layer-subplot"><g class="shapelayer"/><g class="imagelayer"/></g><g class="minor-gridlayer"><g class="x"/><g class="y"/></g><g class="gridlayer"><g class="x"/><g class="y"><path class="ygrid crisp" transform="translate(0,349.52)" d="M80,0h540" style="stroke: rgb(235, 240, 248); stroke-opacity: 1; stroke-width: 1px;"/><path class="ygrid crisp" transform="translate(0,305.62)" d="M80,0h540" style="stroke: rgb(235, 240, 248); stroke-opacity: 1; stroke-width: 1px;"/><path class="ygrid crisp" transform="translate(0,261.72)" d="M80,0h540" style="stroke: rgb(235, 240, 248); stroke-opacity: 1; stroke-width: 1px;"/><path class="ygrid crisp" transform="translate(0,217.81)" d="M80,0h540" style="stroke: rgb(235, 240, 248); stroke-opacity: 1; stroke-width: 1px;"/><path class="ygrid crisp" transform="translate(0,173.91)" d="M80,0h540" style="stroke: rgb(235, 240, 248); stroke-opacity: 1; stroke-width: 1px;"/><path class="ygrid crisp" transform="translate(0,130.01)" d="M80,0h540" style="stroke: rgb(235, 240, 248); stroke-opacity: 1; stroke-width: 1px;"/></g></g><g class="zerolinelayer"/><g class="layer-between"><g class="shapelayer"/><g class="imagelayer"/></g><path class="xlines-below"/><path class="ylines-below"/><g class="overlines-below"/><g class="xaxislayer-below"/><g class="yaxislayer-below"/><g class="overaxes-below"/><g class="overplot"><g class="xy" transform="translate(80,100)" clip-path="url(#clipe8ff69xyplot)"><g class="boxlayer mlayer"><g class="trace boxes" style="opacity: 1;"><path class="box" d="M22.95,200.04H67.05M22.95,220.98H67.05V176.96H22.95ZM45,220.98V256.65M45,176.96V125.53M33.98,256.65H56.03M33.98,125.53H56.03" style="vector-effect: none; stroke-width: 2px; stroke: rgb(255, 255, 255); stroke-opacity: 0; fill: rgb(255, 255, 255); fill-opacity: 0;"/><g class="points"><path class="point" transform="translate(46.88,256.65)" d="M3,0A3,3 0 1,1 0,-3A3,3 0 0,1 3,0Z" style="opacity: 1; stroke-width: 0px; fill: rgb(95, 70, 144); fill-opacity: 1;"/><path class="point" transform="translate(42.6,255.9)" d="M3,0A3,3 0 1,1 0,-3A3,3 0 0,1 3,0Z" style="opacity: 1; stroke-width: 0px; fill: rgb(95, 70, 144); fill-opacity: 1;"/><path class="point" transform="translate(47.94,255.31)" d="M3,0A3,3 0 1,1 0,-3A3,3 0 0,1 3,0Z" style="opacity: 1; stroke-width: 0px; fill: rgb(95, 70, 144); fill-opacity: 1;"/><path class="point" transform="translate(41.69,254.79)" d="M3,0A3,3 0 1,1 0,-3A3,3 0 0,1 3,0Z" style="opacity: 1; stroke-width: 0px; fill: rgb(95, 70, 144); fill-opacity: 1;"/><path class="point" transform="translate(44.04,243.65)" d="M3,0A3,3 0 1,1 0,-3A3,3 0 0,1 3,0Z" style="opacity: 1; stroke-width: 0px; fill: rgb(95, 70, 144); fill-opacity: 1;"/><path class="point" transform="translate(47.13,234.65)" d="M3,0A3,3 0 1,1 0,-3A3,3 0 0,1 3,0Z" style="opacity: 1; stroke-width: 0px; fill: rgb(95, 70, 144); fill-opacity: 1;"/><path class="point" transform="translate(44.85,232.13)" d="M3,0A3,3 0 1,1 0,-3A3,3 0 0,1 3,0Z" style="opacity: 1; stroke-width: 0px; fill: rgb(95, 70, 144); fill-opacity: 1;"/><path class="point" transform="translate(46.14,228.4)" d="M3,0A3,3 0 1,1 0,-3A3,3 0 0,1 3,0Z" style="opacity: 1; stroke-width: 0px; fill: rgb(95, 70, 144); fill-opacity: 1;"/><path class="point" transform="translate(43.78,226.26)" d="M3,0A3,3 0 1,1 0,-3A3,3 0 0,1 3,0Z" style="opacity: 1; stroke-width: 0px; fill: rgb(95, 70, 144); fill-opacity: 1;"/><path class="point" transform="translate(42,221.89)" d="M3,0A3,3 0 1,1 0,-3A3,3 0 0,1 3,0Z" style="opacity: 1; stroke-width: 0px; fill: rgb(95, 70, 144); fill-opacity: 1;"/><path class="point" transform="translate(46.26,221.31)" d="M3,0A3,3 0 1,1 0,-3A3,3 0 0,1 3,0Z" style="opacity: 1; stroke-width: 0px; fill: rgb(95, 70, 144); fill-opacity: 1;"/><path class="point" transform="translate(43.44,219.98)" d="M3,0A3,3 0 1,1 0,-3A3,3 0 0,1 3,0Z" style="opacity: 1; stroke-width: 0px; fill: rgb(95, 70, 144); fill-opacity: 1;"/><path class="point" transform="translate(48.15,217.95)" d="M3,0A3,3 0 1,1 0,-3A3,3 0 0,1 3,0Z" style="opacity: 1; stroke-width: 0px; fill: rgb(95, 70, 144); fill-opacity: 1;"/><path class="point" transform="translate(39.96,215.29)" d="M3,0A3,3 0 1,1 0,-3A3,3 0 0,1 3,0Z" style="opacity: 1; stroke-width: 0px; fill: rgb(95, 70, 144); fill-opacity: 1;"/><path class="point" transform="translate(41.77,208.92)" d="M3,0A3,3 0 1,1 0,-3A3,3 0 0,1 3,0Z" style="opacity: 1; stroke-width: 0px; fill: rgb(95, 70, 144); fill-opacity: 1;"/><path class="point" transform="translate(49.7,208.58)" d="M3,0A3,3 0 1,1 0,-3A3,3 0 0,1 3,0Z" style="opacity: 1; stroke-width: 0px; fill: rgb(95, 70, 144); fill-opacity: 1;"/><path class="point" transform="translate(43.65,206.37)" d="M3,0A3,3 0 1,1 0,-3A3,3 0 0,1 3,0Z" style="opacity: 1; stroke-width: 0px; fill: rgb(95, 70, 144); fill-opacity: 1;"/><path class="point" transform="translate(40.64,204.93)" d="M3,0A3,3 0 1,1 0,-3A3,3 0 0,1 3,0Z" style="opacity: 1; stroke-width: 0px; fill: rgb(95, 70, 144); fill-opacity: 1;"/><path class="point" transform="translate(43.22,204.58)" d="M3,0A3,3 0 1,1 0,-3A3,3 0 0,1 3,0Z" style="opacity: 1; stroke-width: 0px; fill: rgb(95, 70, 144); fill-opacity: 1;"/><path class="point" transform="translate(44.87,203.28)" d="M3,0A3,3 0 1,1 0,-3A3,3 0 0,1 3,0Z" style="opacity: 1; stroke-width: 0px; fill: rgb(95, 70, 144); fill-opacity: 1;"/><path class="point" transform="translate(47.77,200.76)" d="M3,0A3,3 0 1,1 0,-3A3,3 0 0,1 3,0Z" style="opacity: 1; stroke-width: 0px; fill: rgb(95, 70, 144); fill-opacity: 1;"/><path class="point" transform="translate(45.73,200.04)" d="M3,0A3,3 0 1,1 0,-3A3,3 0 0,1 3,0Z" style="opacity: 1; stroke-width: 0px; fill: rgb(95, 70, 144); fill-opacity: 1;"/><path class="point" transform="translate(43.19,195.49)" d="M3,0A3,3 0 1,1 0,-3A3,3 0 0,1 3,0Z" style="opacity: 1; stroke-width: 0px; fill: rgb(95, 70, 144); fill-opacity: 1;"/><path class="point" transform="translate(40.29,195.3)" d="M3,0A3,3 0 1,1 0,-3A3,3 0 0,1 3,0Z" style="opacity: 1; stroke-width: 0px; fill: rgb(95, 70, 144); fill-opacity: 1;"/><path class="point" transform="translate(44.98,194.02)" d="M3,0A3,3 0 1,1 0,-3A3,3 0 0,1 3,0Z" style="opacity: 1; stroke-width: 0px; fill: rgb(95, 70, 144); fill-opacity: 1;"/><path class="point" transform="translate(43.47,193.26)" d="M3,0A3,3 0 1,1 0,-3A3,3 0 0,1 3,0Z" style="opacity: 1; stroke-width: 0px; fill: rgb(95, 70, 144); fill-opacity: 1;"/><path class="point" transform="translate(47.4,193.1)" d="M3,0A3,3 0 1,1 0,-3A3,3 0 0,1 3,0Z" style="opacity: 1; stroke-width: 0px; fill: rgb(95, 70, 144); fill-opacity: 1;"/><path class="point" transform="translate(44.51,190.83)" d="M3,0A3,3 0 1,1 0,-3A3,3 0 0,1 3,0Z" style="opacity: 1; stroke-width: 0px; fill: rgb(95, 70, 144); fill-opacity: 1;"/><path class="point" transform="translate(41.75,186.29)" d="M3,0A3,3 0 1,1 0,-3A3,3 0 0,1 3,0Z" style="opacity: 1; stroke-width: 0px; fill: rgb(95, 70, 144); fill-opacity: 1;"/><path class="point" transform="translate(40.33,183.82)" d="M3,0A3,3 0 1,1 0,-3A3,3 0 0,1 3,0Z" style="opacity: 1; stroke-width: 0px; fill: rgb(95, 70, 144); fill-opacity: 1;"/><path class="point" transform="translate(47.55,179.58)" d="M3,0A3,3 0 1,1 0,-3A3,3 0 0,1 3,0Z" style="opacity: 1; stroke-width: 0px; fill: rgb(95, 70, 144); fill-opacity: 1;"/><path class="point" transform="translate(41.51,178.21)" d="M3,0A3,3 0 1,1 0,-3A3,3 0 0,1 3,0Z" style="opacity: 1; stroke-width: 0px; fill: rgb(95, 70, 144); fill-opacity: 1;"/><path class="point" transform="translate(47.39,176.54)" d="M3,0A3,3 0 1,1 0,-3A3,3 0 0,1 3,0Z" style="opacity: 1; stroke-width: 0px; fill: rgb(95, 70, 144); fill-opacity: 1;"/><path class="point" transform="translate(45.9,171.78)" d="M3,0A3,3 0 1,1 0,-3A3,3 0 0,1 3,0Z" style="opacity: 1; stroke-width: 0px; fill: rgb(95, 70, 144); fill-opacity: 1;"/><path class="point" transform="translate(43.74,170.83)" d="M3,0A3,3 0 1,1 0,-3A3,3 0 0,1 3,0Z" style="opacity: 1; stroke-width: 0px; fill: rgb(95, 70, 144); fill-opacity: 1;"/><path class="point" transform="translate(42.45,164.92)" d="M3,0A3,3 0 1,1 0,-3A3,3 0 0,1 3,0Z" style="opacity: 1; stroke-width: 0px; fill: rgb(95, 70, 144); fill-opacity: 1;"/><path class="point" transform="translate(46.5,158.27)" d="M3,0A3,3 0 1,1 0,-3A3,3 0 0,1 3,0Z" style="opacity: 1; stroke-width: 0px; fill: rgb(95, 70, 144); fill-opacity: 1;"/><path class="point" transform="translate(44.71,154.91)" d="M3,0A3,3 0 1,1 0,-3A3,3 0 0,1 3,0Z" style="opacity: 1; stroke-width: 0px; fill: rgb(95, 70, 144); fill-opacity: 1;"/><path class="point" transform="translate(46.85,151.76)" d="M3,0A3,3 0 1,1 0,-3A3,3 0 0,1 3,0Z" style="opacity: 1; stroke-width: 0px; fill: rgb(95, 70, 144); fill-opacity: 1;"/><path class="point" transform="translate(42.85,151.22)" d="M3,0A3,3 0 1,1 0,-3A3,3 0 0,1 3,0Z" style="opacity: 1; stroke-width: 0px; fill: rgb(95, 70, 144); fill-opacity: 1;"/><path class="point" transform="translate(46.59,148.2)" d="M3,0A3,3 0 1,1 0,-3A3,3 0 0,1 3,0Z" style="opacity: 1; stroke-width: 0px; fill: rgb(95, 70, 144); fill-opacity: 1;"/><path class="point" transform="translate(44.8,125.53)" d="M3,0A3,3 0 1,1 0,-3A3,3 0 0,1 3,0Z" style="opacity: 1; stroke-width: 0px; fill: rgb(95, 70, 144); fill-opacity: 1;"/><path class="point" transform="translate(44.1,99.56)" d="M3,0A3,3 0 1,1 0,-3A3,3 0 0,1 3,0Z" style="opacity: 1; stroke-width: 0px; fill: rgb(95, 70, 144); fill-opacity: 1;"/></g></g><g class="trace boxes" style="opacity: 1;"><path class="box" d="M112.95,244.09H157.05M112.95,249.31H157.05V235.93H112.95ZM135,249.31V267.9M135,235.93V221.01M123.98,267.9H146.03M123.98,221.01H146.03" style="vector-effect: none; stroke-width: 2px; stroke: rgb(255, 255, 255); stroke-opacity: 0; fill: rgb(255, 255, 255); fill-opacity: 0;"/><g class="points"><path class="point" transform="translate(136.29,267.9)" d="M3,0A3,3 0 1,1 0,-3A3,3 0 0,1 3,0Z" style="opacity: 1; stroke-width: 0px; fill: rgb(29, 105, 150); fill-opacity: 1;"/><path class="point" transform="translate(133.35,261.08)" d="M3,0A3,3 0 1,1 0,-3A3,3 0 0,1 3,0Z" style="opacity: 1; stroke-width: 0px; fill: rgb(29, 105, 150); fill-opacity: 1;"/><path class="point" transform="translate(137.03,260.54)" d="M3,0A3,3 0 1,1 0,-3A3,3 0 0,1 3,0Z" style="opacity: 1; stroke-width: 0px; fill: rgb(29, 105, 150); fill-opacity: 1;"/><path class="point" transform="translate(132.64,259.68)" d="M3,0A3,3 0 1,1 0,-3A3,3 0 0,1 3,0Z" style="opacity: 1; stroke-width: 0px; fill: rgb(29, 105, 150); fill-opacity: 1;"/><path class="point" transform="translate(134.28,256.71)" d="M3,0A3,3 0 1,1 0,-3A3,3 0 0,1 3,0Z" style="opacity: 1; stroke-width: 0px; fill: rgb(29, 105, 150); fill-opacity: 1;"/><path class="point" transform="translate(136.49,256.28)" d="M3,0A3,3 0 1,1 0,-3A3,3 0 0,1 3,0Z" style="opacity: 1; stroke-width: 0px; fill: rgb(29, 105, 150); fill-opacity: 1;"/><path class="point" transform="translate(134.87,255.18)" d="M3,0A3,3 0 1,1 0,-3A3,3 0 0,1 3,0Z" style="opacity: 1; stroke-width: 0px; fill: rgb(29, 105, 150); fill-opacity: 1;"/><path class="point" transform="translate(135.98,253.3)" d="M3,0A3,3 0 1,1 0,-3A3,3 0 0,1 3,0Z" style="opacity: 1; stroke-width: 0px; fill: rgb(29, 105, 150); fill-opacity: 1;"/><path class="point" transform="translate(133.9,253.18)" d="M3,0A3,3 0 1,1 0,-3A3,3 0 0,1 3,0Z" style="opacity: 1; stroke-width: 0px; fill: rgb(29, 105, 150); fill-opacity: 1;"/><path class="point" transform="translate(132.11,252.92)" d="M3,0A3,3 0 1,1 0,-3A3,3 0 0,1 3,0Z" style="opacity: 1; stroke-width: 0px; fill: rgb(29, 105, 150); fill-opacity: 1;"/><path class="point" transform="translate(136.07,250.14)" d="M3,0A3,3 0 1,1 0,-3A3,3 0 0,1 3,0Z" style="opacity: 1; stroke-width: 0px; fill: rgb(29, 105, 150); fill-opacity: 1;"/><path class="point" transform="translate(133.67,249.31)" d="M3,0A3,3 0 1,1 0,-3A3,3 0 0,1 3,0Z" style="opacity: 1; stroke-width: 0px; fill: rgb(29, 105, 150); fill-opacity: 1;"/><path class="point" transform="translate(137.86,247.96)" d="M3,0A3,3 0 1,1 0,-3A3,3 0 0,1 3,0Z" style="opacity: 1; stroke-width: 0px; fill: rgb(29, 105, 150); fill-opacity: 1;"/><path class="point" transform="translate(130.62,247.62)" d="M3,0A3,3 0 1,1 0,-3A3,3 0 0,1 3,0Z" style="opacity: 1; stroke-width: 0px; fill: rgb(29, 105, 150); fill-opacity: 1;"/><path class="point" transform="translate(132.5,247.51)" d="M3,0A3,3 0 1,1 0,-3A3,3 0 0,1 3,0Z" style="opacity: 1; stroke-width: 0px; fill: rgb(29, 105, 150); fill-opacity: 1;"/><path class="point" transform="translate(139.75,247.39)" d="M3,0A3,3 0 1,1 0,-3A3,3 0 0,1 3,0Z" style="opacity: 1; stroke-width: 0px; fill: rgb(29, 105, 150); fill-opacity: 1;"/><path class="point" transform="translate(133.55,246.42)" d="M3,0A3,3 0 1,1 0,-3A3,3 0 0,1 3,0Z" style="opacity: 1; stroke-width: 0px; fill: rgb(29, 105, 150); fill-opacity: 1;"/><path class="point" transform="translate(129.32,246.28)" d="M3,0A3,3 0 1,1 0,-3A3,3 0 0,1 3,0Z" style="opacity: 1; stroke-width: 0px; fill: rgb(29, 105, 150); fill-opacity: 1;"/><path class="point" transform="translate(133.06,246.11)" d="M3,0A3,3 0 1,1 0,-3A3,3 0 0,1 3,0Z" style="opacity: 1; stroke-width: 0px; fill: rgb(29, 105, 150); fill-opacity: 1;"/><path class="point" transform="translate(134.88,245.3)" d="M3,0A3,3 0 1,1 0,-3A3,3 0 0,1 3,0Z" style="opacity: 1; stroke-width: 0px; fill: rgb(29, 105, 150); fill-opacity: 1;"/><path class="point" transform="translate(137.39,245.19)" d="M3,0A3,3 0 1,1 0,-3A3,3 0 0,1 3,0Z" style="opacity: 1; stroke-width: 0px; fill: rgb(29, 105, 150); fill-opacity: 1;"/><path class="point" transform="translate(135.65,245.01)" d="M3,0A3,3 0 1,1 0,-3A3,3 0 0,1 3,0Z" style="opacity: 1; stroke-width: 0px; fill: rgb(29, 105, 150); fill-opacity: 1;"/><path class="point" transform="translate(133.48,244.7)" d="M3,0A3,3 0 1,1 0,-3A3,3 0 0,1 3,0Z" style="opacity: 1; stroke-width: 0px; fill: rgb(29, 105, 150); fill-opacity: 1;"/><path class="point" transform="translate(130.78,243.47)" d="M3,0A3,3 0 1,1 0,-3A3,3 0 0,1 3,0Z" style="opacity: 1; stroke-width: 0px; fill: rgb(29, 105, 150); fill-opacity: 1;"/><path class="point" transform="translate(134.98,243.22)" d="M3,0A3,3 0 1,1 0,-3A3,3 0 0,1 3,0Z" style="opacity: 1; stroke-width: 0px; fill: rgb(29, 105, 150); fill-opacity: 1;"/><path class="point" transform="translate(133.44,242.34)" d="M3,0A3,3 0 1,1 0,-3A3,3 0 0,1 3,0Z" style="opacity: 1; stroke-width: 0px; fill: rgb(29, 105, 150); fill-opacity: 1;"/><path class="point" transform="translate(137.52,242.3)" d="M3,0A3,3 0 1,1 0,-3A3,3 0 0,1 3,0Z" style="opacity: 1; stroke-width: 0px; fill: rgb(29, 105, 150); fill-opacity: 1;"/><path class="point" transform="translate(134.59,241.39)" d="M3,0A3,3 0 1,1 0,-3A3,3 0 0,1 3,0Z" style="opacity: 1; stroke-width: 0px; fill: rgb(29, 105, 150); fill-opacity: 1;"/><path class="point" transform="translate(132.14,240.52)" d="M3,0A3,3 0 1,1 0,-3A3,3 0 0,1 3,0Z" style="opacity: 1; stroke-width: 0px; fill: rgb(29, 105, 150); fill-opacity: 1;"/><path class="point" transform="translate(130.87,240.22)" d="M3,0A3,3 0 1,1 0,-3A3,3 0 0,1 3,0Z" style="opacity: 1; stroke-width: 0px; fill: rgb(29, 105, 150); fill-opacity: 1;"/><path class="point" transform="translate(137.05,240.2)" d="M3,0A3,3 0 1,1 0,-3A3,3 0 0,1 3,0Z" style="opacity: 1; stroke-width: 0px; fill: rgb(29, 105, 150); fill-opacity: 1;"/><path class="point" transform="translate(131.98,240.13)" d="M3,0A3,3 0 1,1 0,-3A3,3 0 0,1 3,0Z" style="opacity: 1; stroke-width: 0px; fill: rgb(29, 105, 150); fill-opacity: 1;"/><path class="point" transform="translate(136.9,238.11)" d="M3,0A3,3 0 1,1 0,-3A3,3 0 0,1 3,0Z" style="opacity: 1; stroke-width: 0px; fill: rgb(29, 105, 150); fill-opacity: 1;"/><path class="point" transform="translate(135.72,236.01)" d="M3,0A3,3 0 1,1 0,-3A3,3 0 0,1 3,0Z" style="opacity: 1; stroke-width: 0px; fill: rgb(29, 105, 150); fill-opacity: 1;"/><path class="point" transform="translate(134.04,235.93)" d="M3,0A3,3 0 1,1 0,-3A3,3 0 0,1 3,0Z" style="opacity: 1; stroke-width: 0px; fill: rgb(29, 105, 150); fill-opacity: 1;"/><path class="point" transform="translate(133.16,231.56)" d="M3,0A3,3 0 1,1 0,-3A3,3 0 0,1 3,0Z" style="opacity: 1; stroke-width: 0px; fill: rgb(29, 105, 150); fill-opacity: 1;"/><path class="point" transform="translate(136.33,230.91)" d="M3,0A3,3 0 1,1 0,-3A3,3 0 0,1 3,0Z" style="opacity: 1; stroke-width: 0px; fill: rgb(29, 105, 150); fill-opacity: 1;"/><path class="point" transform="translate(134.69,227.38)" d="M3,0A3,3 0 1,1 0,-3A3,3 0 0,1 3,0Z" style="opacity: 1; stroke-width: 0px; fill: rgb(29, 105, 150); fill-opacity: 1;"/><path class="point" transform="translate(136.33,227.26)" d="M3,0A3,3 0 1,1 0,-3A3,3 0 0,1 3,0Z" style="opacity: 1; stroke-width: 0px; fill: rgb(29, 105, 150); fill-opacity: 1;"/><path class="point" transform="translate(133.59,226.47)" d="M3,0A3,3 0 1,1 0,-3A3,3 0 0,1 3,0Z" style="opacity: 1; stroke-width: 0px; fill: rgb(29, 105, 150); fill-opacity: 1;"/><path class="point" transform="translate(136.08,225.47)" d="M3,0A3,3 0 1,1 0,-3A3,3 0 0,1 3,0Z" style="opacity: 1; stroke-width: 0px; fill: rgb(29, 105, 150); fill-opacity: 1;"/><path class="point" transform="translate(134.87,223.77)" d="M3,0A3,3 0 1,1 0,-3A3,3 0 0,1 3,0Z" style="opacity: 1; stroke-width: 0px; fill: rgb(29, 105, 150); fill-opacity: 1;"/><path class="point" transform="translate(134.38,221.01)" d="M3,0A3,3 0 1,1 0,-3A3,3 0 0,1 3,0Z" style="opacity: 1; stroke-width: 0px; fill: rgb(29, 105, 150); fill-opacity: 1;"/><path class="point" transform="translate(133.54,197.73)" d="M3,0A3,3 0 1,1 0,-3A3,3 0 0,1 3,0Z" style="opacity: 1; stroke-width: 0px; fill: rgb(29, 105, 150); fill-opacity: 1;"/><path class="point" transform="translate(134.46,185.05)" d="M3,0A3,3 0 1,1 0,-3A3,3 0 0,1 3,0Z" style="opacity: 1; stroke-width: 0px; fill: rgb(29, 105, 150); fill-opacity: 1;"/><path class="point" transform="translate(135.85,181.78)" d="M3,0A3,3 0 1,1 0,-3A3,3 0 0,1 3,0Z" style="opacity: 1; stroke-width: 0px; fill: rgb(29, 105, 150); fill-opacity: 1;"/></g></g><g class="trace boxes" style="opacity: 1;"><path class="box" d="M202.95,153.67H247.05M202.95,186.73H247.05V132.94H202.95ZM225,186.73V200.6M225,132.94V88.78M213.98,200.6H236.03M213.98,88.78H236.03" style="vector-effect: none; stroke-width: 2px; stroke: rgb(255, 255, 255); stroke-opacity: 0; fill: rgb(255, 255, 255); fill-opacity: 0;"/><g class="points"><path class="point" transform="translate(228.24,200.6)" d="M3,0A3,3 0 1,1 0,-3A3,3 0 0,1 3,0Z" style="opacity: 1; stroke-width: 0px; fill: rgb(56, 166, 165); fill-opacity: 1;"/><path class="point" transform="translate(220.78,190.46)" d="M3,0A3,3 0 1,1 0,-3A3,3 0 0,1 3,0Z" style="opacity: 1; stroke-width: 0px; fill: rgb(56, 166, 165); fill-opacity: 1;"/><path class="point" transform="translate(229.94,186.73)" d="M3,0A3,3 0 1,1 0,-3A3,3 0 0,1 3,0Z" style="opacity: 1; stroke-width: 0px; fill: rgb(56, 166, 165); fill-opacity: 1;"/><path class="point" transform="translate(220.52,186.34)" d="M3,0A3,3 0 1,1 0,-3A3,3 0 0,1 3,0Z" style="opacity: 1; stroke-width: 0px; fill: rgb(56, 166, 165); fill-opacity: 1;"/><path class="point" transform="translate(223.93,157.05)" d="M3,0A3,3 0 1,1 0,-3A3,3 0 0,1 3,0Z" style="opacity: 1; stroke-width: 0px; fill: rgb(56, 166, 165); fill-opacity: 1;"/><path class="point" transform="translate(227.29,150.3)" d="M3,0A3,3 0 1,1 0,-3A3,3 0 0,1 3,0Z" style="opacity: 1; stroke-width: 0px; fill: rgb(56, 166, 165); fill-opacity: 1;"/><path class="point" transform="translate(224.84,146.72)" d="M3,0A3,3 0 1,1 0,-3A3,3 0 0,1 3,0Z" style="opacity: 1; stroke-width: 0px; fill: rgb(56, 166, 165); fill-opacity: 1;"/><path class="point" transform="translate(226.16,132.94)" d="M3,0A3,3 0 1,1 0,-3A3,3 0 0,1 3,0Z" style="opacity: 1; stroke-width: 0px; fill: rgb(56, 166, 165); fill-opacity: 1;"/><path class="point" transform="translate(223.82,88.78)" d="M3,0A3,3 0 1,1 0,-3A3,3 0 0,1 3,0Z" style="opacity: 1; stroke-width: 0px; fill: rgb(56, 166, 165); fill-opacity: 1;"/><path class="point" transform="translate(222.28,14.1)" d="M3,0A3,3 0 1,1 0,-3A3,3 0 0,1 3,0Z" style="opacity: 1; stroke-width: 0px; fill: rgb(56, 166, 165); fill-opacity: 1;"/></g></g><g class="trace boxes" style="opacity: 1;"><path class="box" d="M292.95,177.93H337.05M292.95,184.64H337.05V111.64H292.95ZM315,184.64V184.99M315,111.64V51.72M303.98,184.99H326.02M303.98,51.72H326.02" style="vector-effect: none; stroke-width: 2px; stroke: rgb(255, 255, 255); stroke-opacity: 0; fill: rgb(255, 255, 255); fill-opacity: 0;"/><g class="points"><path class="point" transform="translate(318.43,184.99)" d="M3,0A3,3 0 1,1 0,-3A3,3 0 0,1 3,0Z" style="opacity: 1; stroke-width: 0px; fill: rgb(15, 133, 84); fill-opacity: 1;"/><path class="point" transform="translate(310.78,184.29)" d="M3,0A3,3 0 1,1 0,-3A3,3 0 0,1 3,0Z" style="opacity: 1; stroke-width: 0px; fill: rgb(15, 133, 84); fill-opacity: 1;"/><path class="point" transform="translate(320.13,171.56)" d="M3,0A3,3 0 1,1 0,-3A3,3 0 0,1 3,0Z" style="opacity: 1; stroke-width: 0px; fill: rgb(15, 133, 84); fill-opacity: 1;"/><path class="point" transform="translate(309.41,51.72)" d="M3,0A3,3 0 1,1 0,-3A3,3 0 0,1 3,0Z" style="opacity: 1; stroke-width: 0px; fill: rgb(15, 133, 84); fill-opacity: 1;"/></g></g><g class="trace boxes" style="opacity: 1;"><path class="box" d="M382.95,114.43H427.05M382.95,114.43H427.05V114.43H382.95ZM405,114.43V114.43M405,114.43V114.43M393.98,114.43H416.03M393.98,114.43H416.03" style="vector-effect: none; stroke-width: 2px; stroke: rgb(255, 255, 255); stroke-opacity: 0; fill: rgb(255, 255, 255); fill-opacity: 0;"/><g class="points"><path class="point" transform="translate(408.43,114.43)" d="M3,0A3,3 0 1,1 0,-3A3,3 0 0,1 3,0Z" style="opacity: 1; stroke-width: 0px; fill: rgb(115, 175, 72); fill-opacity: 1;"/></g></g><g class="trace boxes" style="opacity: 1;"><path class="box" d="M472.95,160.72H517.05M472.95,160.72H517.05V160.72H472.95ZM495,160.72V160.72M495,160.72V160.72M483.98,160.72H506.03M483.98,160.72H506.03" style="vector-effect: none; stroke-width: 2px; stroke: rgb(255, 255, 255); stroke-opacity: 0; fill: rgb(255, 255, 255); fill-opacity: 0;"/><g class="points"><path class="point" transform="translate(498.43,160.72)" d="M3,0A3,3 0 1,1 0,-3A3,3 0 0,1 3,0Z" style="opacity: 1; stroke-width: 0px; fill: rgb(237, 173, 8); fill-opacity: 1;"/></g></g></g></g></g><g class="zerolinelayer-above"/><path class="xlines-above crisp" d="M0,0" style="fill: none;"/><path class="ylines-above crisp" d="M0,0" style="fill: none;"/><g class="overlines-above"/><g class="xaxislayer-above"><g class="xtick"><text text-anchor="start" x="0" y="395" transform="translate(125,0) rotate(29.999999999999996,0,389)" style="font-family: 'Open Sans', verdana, arial, sans-serif; font-size: 12px; fill: rgb(42, 63, 95); fill-opacity: 1; white-space: pre;">Retail Power Marketer</text></g><g class="xtick"><text text-anchor="start" x="0" y="395" transform="translate(215,0) rotate(29.999999999999996,0,389)" style="font-family: 'Open Sans', verdana, arial, sans-serif; font-size: 12px; fill: rgb(42, 63, 95); fill-opacity: 1; white-space: pre;">Municipal</text></g><g class="xtick"><text text-anchor="start" x="0" y="395" transform="translate(305,0) rotate(29.999999999999996,0,389)" style="font-family: 'Open Sans', verdana, arial, sans-serif; font-size: 12px; fill: rgb(42, 63, 95); fill-opacity: 1; white-space: pre;">Investor Owned</text></g><g class="xtick"><text text-anchor="start" x="0" y="395" transform="translate(395,0) rotate(29.999999999999996,0,389)" style="font-family: 'Open Sans', verdana, arial, sans-serif; font-size: 12px; fill: rgb(42, 63, 95); fill-opacity: 1; white-space: pre;">Cooperative</text></g><g class="xtick"><text text-anchor="start" x="0" y="395" transform="translate(485,0) rotate(29.999999999999996,0,389)" style="font-family: 'Open Sans', verdana, arial, sans-serif; font-size: 12px; fill: rgb(42, 63, 95); fill-opacity: 1; white-space: pre;">State</text></g><g class="xtick"><text text-anchor="start" x="0" y="395" transform="translate(575,0) rotate(29.999999999999996,0,389)" style="font-family: 'Open Sans', verdana, arial, sans-serif; font-size: 12px; fill: rgb(42, 63, 95); fill-opacity: 1; white-space: pre;">Behind the Meter</text></g></g><g class="yaxislayer-above"><g class="ytick"><text text-anchor="end" x="79" y="4.199999999999999" transform="translate(0,349.52)" style="font-family: 'Open Sans', verdana, arial, sans-serif; font-size: 12px; fill: rgb(42, 63, 95); fill-opacity: 1; white-space: pre;">50</text></g><g class="ytick"><text text-anchor="end" x="79" y="4.199999999999999" style="font-family: 'Open Sans', verdana, arial, sans-serif; font-size: 12px; fill: rgb(42, 63, 95); fill-opacity: 1; white-space: pre;" transform="translate(0,305.62)">100</text></g><g class="ytick"><text text-anchor="end" x="79" y="4.199999999999999" style="font-family: 'Open Sans', verdana, arial, sans-serif; font-size: 12px; fill: rgb(42, 63, 95); fill-opacity: 1; white-space: pre;" transform="translate(0,261.72)">150</text></g><g class="ytick"><text text-anchor="end" x="79" y="4.199999999999999" style="font-family: 'Open Sans', verdana, arial, sans-serif; font-size: 12px; fill: rgb(42, 63, 95); fill-opacity: 1; white-space: pre;" transform="translate(0,217.81)">200</text></g><g class="ytick"><text text-anchor="end" x="79" y="4.199999999999999" style="font-family: 'Open Sans', verdana, arial, sans-serif; font-size: 12px; fill: rgb(42, 63, 95); fill-opacity: 1; white-space: pre;" transform="translate(0,173.91)">250</text></g><g class="ytick"><text text-anchor="end" x="79" y="4.199999999999999" style="font-family: 'Open Sans', verdana, arial, sans-serif; font-size: 12px; fill: rgb(42, 63, 95); fill-opacity: 1; white-space: pre;" transform="translate(0,130.01)">300</text></g></g><g class="overaxes-above"/></g></g><g class="polarlayer"/><g class="smithlayer"/><g class="ternarylayer"/><g class="geolayer"/><g class="funnelarealayer"/><g class="pielayer"/><g class="iciclelayer"/><g class="treemaplayer"/><g class="sunburstlayer"/><g class="glimages"/><defs id="topdefs-e8ff69"><g class="clips"/></defs><g class="layer-above"><g class="imagelayer"/><g class="shapelayer"/></g><g class="infolayer"><g class="g-gtitle"><text class="gtitle" x="35" y="50" text-anchor="start" dy="0em" style="opacity: 1; font-family: 'Open Sans', verdana, arial, sans-serif; font-size: 17px; fill: rgb(42, 63, 95); fill-opacity: 1; white-space: pre;"><tspan style="font-weight:bold">Rate Equity by Ownership Model:</tspan> Residential Premium Over Industrial Rates</text></g><g class="g-xtitle"><text class="xtitle" x="350" y="487.5568359375" text-anchor="middle" style="opacity: 1; font-family: 'Open Sans', verdana, arial, sans-serif; font-size: 14px; fill: rgb(42, 63, 95); fill-opacity: 1; white-space: pre;">Type</text></g><g class="g-ytitle"><text class="ytitle" transform="rotate(-90,36.709375,241)" x="36.709375" y="241" text-anchor="middle" style="opacity: 1; font-family: 'Open Sans', verdana, arial, sans-serif; font-size: 14px; fill: rgb(42, 63, 95); fill-opacity: 1; white-space: pre;">Residential Premium ($/MWh)</text></g></g></svg>